<?xml version="1.0" encoding="UTF-8" standalone="no"?><!DOCTYPE svg PUBLIC "-//W3C//DTD SVG 1.1//EN" "http://www.w3.org/Graphics/SVG/1.1/DTD/svg11.dtd"><svg width="100%" height="100%" viewBox="0 0 42 42" version="1.1" xmlns="http://www.w3.org/2000/svg" xmlns:xlink="http://www.w3.org/1999/xlink" xml:space="preserve" xmlns:serif="http://www.serif.com/" style="fill-rule:evenodd;clip-rule:evenodd;stroke-linejoin:round;stroke-miterlimit:2;"><path d="M15.25,26.77l9.03,15.23l-14.28,0c-1.15,0 -2.25,-0.19 -3.28,-0.56l8.53,-14.67Zm11.1,-1.76l-10.07,-0l4.92,-8.47l5.15,8.47Zm-5.71,-25.01l-20.35,34.41c-0.02,-0.07 -0.03,-0.15 -0.05,-0.22c-0.16,-0.7 -0.24,-1.44 -0.24,-2.19l0,-22c0,-5.51 4.49,-10 10,-10l10.64,-0Zm7.88,-0l-23.61,40.6c-1.55,-0.92 -2.82,-2.24 -3.69,-3.83l21.82,-36.77l5.48,-0Zm13.48,10l0,15.01l-13.31,0l-6.35,-10.43l8.56,-14.58l1.1,-0c5.51,-0 10,4.49 10,10Zm-24.28,17.01l24.28,0l0,4.99c0,5.51 -4.49,10 -10,10l-5.4,0l-8.88,-14.99Z" style="fill:#fff;"/></svg>