<?xml version="1.0" encoding="UTF-8" standalone="no"?><!DOCTYPE svg PUBLIC "-//W3C//DTD SVG 1.1//EN" "http://www.w3.org/Graphics/SVG/1.1/DTD/svg11.dtd"><svg width="100%" height="100%" viewBox="0 0 60 49" version="1.1" xmlns="http://www.w3.org/2000/svg" xmlns:xlink="http://www.w3.org/1999/xlink" xml:space="preserve" xmlns:serif="http://www.serif.com/" style="fill-rule:evenodd;clip-rule:evenodd;stroke-linejoin:round;stroke-miterlimit:2;"><path d="M59.458,27.021c-0.349,-2.464 -1.202,-4.798 -2.536,-6.94c-1.162,-1.87 -2.654,-3.531 -4.433,-4.946l0.005,-0.005l-18.696,-14.36c-0.014,-0.011 -0.027,-0.024 -0.043,-0.032c-0.623,-0.475 -1.463,-0.738 -2.37,-0.738c-0.907,0 -1.782,0.263 -2.461,0.741c-0.73,0.51 -1.148,1.188 -1.178,1.908c-0.027,0.673 0.295,1.32 0.907,1.825c1.202,0.949 2.405,1.918 3.607,2.89c0.617,0.498 1.245,1.004 1.876,1.511c0.25,0.201 0.347,0.539 0.24,0.842c-0.106,0.303 -0.393,0.506 -0.714,0.506c-5.709,-0.004 -20.735,-0.015 -20.735,-0.015c-2.619,0 -4.401,1.229 -4.768,3.288c-0.161,0.901 0.123,1.894 0.759,2.654c0.674,0.805 1.653,1.248 2.759,1.248l1.747,-0c2.412,-0 4.833,-0.006 7.254,-0.011c-0,-0 0.001,-0 0.002,-0c0.327,-0.001 0.618,0.208 0.721,0.519c0.103,0.31 -0.006,0.652 -0.269,0.846c-5.093,3.769 -18.931,14.006 -18.931,14.006l-0.083,0.059c-1.162,0.891 -1.921,2.136 -2.085,3.422c-0.124,0.974 0.102,1.862 0.657,2.573c0.66,0.848 1.691,1.313 2.904,1.313c1.191,-0 2.407,-0.451 3.424,-1.272c0,-0 7.025,-5.75 9.959,-8.152c0.212,-0.172 0.504,-0.209 0.751,-0.094c0.248,0.116 0.408,0.362 0.412,0.635c0.001,0.003 0.002,0.006 0.002,0.008c0.013,0.757 0.255,2.273 0.638,3.505c0.795,2.53 2.131,4.846 3.975,6.881c1.918,2.117 4.256,3.794 6.945,4.986c2.842,1.258 5.898,1.894 9.084,1.894l0.029,0c3.196,-0.008 6.261,-0.655 9.114,-1.927c2.694,-1.205 5.029,-2.89 6.939,-5.007c1.841,-2.045 3.178,-4.364 3.969,-6.894c0.392,-1.253 0.644,-2.544 0.749,-3.851c0.094,-1.256 0.051,-2.544 -0.126,-3.816Zm-20.446,12.132c-7.021,0 -12.712,-5.09 -12.712,-11.373c-0,-6.279 5.691,-11.373 12.712,-11.373c7.02,0 12.709,5.091 12.709,11.373c0,6.283 -5.692,11.373 -12.709,11.373Zm7.329,-12.371c0.104,1.876 -0.645,3.615 -1.959,4.903c-1.337,1.312 -3.248,2.136 -5.381,2.136c-2.133,0 -4.041,-0.824 -5.381,-2.136c-1.315,-1.288 -2.061,-3.03 -1.959,-4.903c0.102,-1.822 0.991,-3.43 2.327,-4.567c1.315,-1.119 3.083,-1.801 5.013,-1.801c1.929,-0 3.695,0.684 5.013,1.801c1.336,1.14 2.225,2.748 2.327,4.567Z" style="fill:#fff;fill-rule:nonzero;"/></svg>