<?xml version="1.0" encoding="UTF-8" standalone="no"?><!DOCTYPE svg PUBLIC "-//W3C//DTD SVG 1.1//EN" "http://www.w3.org/Graphics/SVG/1.1/DTD/svg11.dtd"><svg width="100%" height="100%" viewBox="0 0 74 37" version="1.1" xmlns="http://www.w3.org/2000/svg" xmlns:xlink="http://www.w3.org/1999/xlink" xml:space="preserve" xmlns:serif="http://www.serif.com/" style="fill-rule:evenodd;clip-rule:evenodd;stroke-linejoin:round;stroke-miterlimit:2;"><g><path d="M41.942,21.453c-0.001,-0.899 -0.002,-1.797 -0.003,-2.696c0,-2.131 1.732,-3.854 3.864,-3.854c0.687,0.003 1.376,0.003 2.068,-0c-0,-0 13.404,0.065 18.49,0.089c0.373,0.002 0.714,0.212 0.885,0.544c0.17,0.332 0.142,0.731 -0.075,1.036c-1.045,1.471 -2.538,3.573 -3.169,4.46c-0.187,0.264 -0.491,0.421 -0.815,0.421c-2.568,0 -14.697,0 -14.697,0l-0,13.929c-0,0.267 -0.107,0.523 -0.297,0.711c-0.19,0.188 -0.447,0.292 -0.714,0.289c-0.925,-0.011 -2.161,-0.025 -2.257,-0.026c-0.761,-0.008 -1.521,-0.017 -2.281,-0.026c-0.547,-0.006 -0.988,-0.451 -0.989,-0.999c-0.002,-2.81 -0.004,-5.62 -0.006,-8.43c-0.002,-1.429 -0.002,-2.858 -0.004,-4.287c0,-0.387 -0,-0.774 -0,-1.161" style="fill:#fff;fill-rule:nonzero;"/><path d="M23.111,7.252c-0,-0 -6.049,-0.108 -9.243,-0.165c-0.373,-0.006 -0.711,-0.22 -0.877,-0.554c-0.166,-0.334 -0.133,-0.733 0.087,-1.035c1.195,-1.638 3,-4.112 3.709,-5.084c0.19,-0.26 0.492,-0.413 0.814,-0.411c2.017,0.012 4.035,0.023 6.052,0.035c1.024,-0 2.014,0.141 2.953,0.404c4.59,1.289 7.955,5.507 7.955,10.508c-0,2.34 -0.735,4.512 -1.994,6.286c0.592,0.507 1.128,1.077 1.597,1.702c0.744,0.989 1.326,2.108 1.702,3.317c0.106,0.342 0.195,0.692 0.271,1.048c0.033,0.177 0.067,0.354 0.093,0.536c0.025,0.156 0.046,0.312 0.063,0.473c0.008,0.046 0.013,0.093 0.013,0.144c-0,0.077 0.024,0.322 0.029,0.388c0.011,0.12 0.021,0.313 0.021,0.634l0,0.021c0,0.173 -0.004,0.347 -0.012,0.516c-0.005,0.037 -0.005,0.08 -0.009,0.118c-0.004,0.131 -0.016,0.262 -0.029,0.388c-0.005,0.047 -0.009,0.097 -0.013,0.144c-0.038,0.342 -0.089,0.68 -0.156,1.01c-0.076,0.359 -0.165,0.705 -0.271,1.047c-0.376,1.209 -0.958,2.328 -1.702,3.317c-1.99,2.644 -5.154,4.351 -8.715,4.351l-0.232,-0c-2.709,0.001 -5.419,0.003 -8.128,0.005l-15.112,0c-0.378,0 -0.723,-0.212 -0.893,-0.548c-0.17,-0.337 -0.136,-0.74 0.087,-1.044c1.251,-1.701 3.151,-4.286 3.881,-5.278c0.188,-0.257 0.488,-0.408 0.806,-0.408c3.096,-0 19.359,-0 19.359,-0c0.041,0.001 0.082,0.002 0.123,0.002c0.065,-0 0.129,-0.002 0.193,-0.005c1.289,-0.064 2.409,-0.767 3.053,-1.797c0.367,-0.587 0.579,-1.281 0.579,-2.023c0,-2.111 -1.714,-3.824 -3.825,-3.824c0,-0 -12.892,-0.027 -17.826,-0.037c-0.371,-0.001 -0.71,-0.206 -0.883,-0.534c-0.173,-0.328 -0.15,-0.724 0.059,-1.03c1.021,-1.493 2.494,-3.649 3.119,-4.563c0.186,-0.272 0.495,-0.435 0.826,-0.435c1.793,-0 7.541,-0 7.541,-0l4.654,0.027c0.051,0.002 0.103,0.003 0.154,0.003c0.113,-0 0.224,-0.005 0.334,-0.014c0.051,-0.005 0.1,-0.01 0.149,-0.016c1.884,-0.238 3.342,-1.848 3.342,-3.795c-0,-1.955 -1.471,-3.57 -3.366,-3.797c-0.116,-0.014 -0.202,-0.023 -0.32,-0.027" style="fill:#fff;"/><path d="M42.939,7.22c-0.552,-0 -1,-0.448 -1,-1c0,-1.369 0,-3.81 0,-5.178c0,-0.552 0.447,-0.999 0.999,-1c9.496,-0.014 18.993,-0.028 28.489,-0.042c0,0 0.166,0.004 0.406,0.009c0.363,0.008 0.692,0.212 0.862,0.533c0.169,0.321 0.152,0.708 -0.046,1.012c-1.069,1.645 -2.719,4.183 -3.387,5.211c-0.184,0.283 -0.5,0.455 -0.838,0.455c-3.336,-0 -21.063,-0 -25.485,-0Z" style="fill:#fff;"/></g></svg>