<?xml version="1.0" encoding="UTF-8" standalone="no"?><!DOCTYPE svg PUBLIC "-//W3C//DTD SVG 1.1//EN" "http://www.w3.org/Graphics/SVG/1.1/DTD/svg11.dtd"><svg width="100%" height="100%" viewBox="0 0 173 74" version="1.1" xmlns="http://www.w3.org/2000/svg" xmlns:xlink="http://www.w3.org/1999/xlink" xml:space="preserve" xmlns:serif="http://www.serif.com/" style="fill-rule:evenodd;clip-rule:evenodd;stroke-linejoin:round;stroke-miterlimit:2;"><path d="M86.016,0l4.46,1.233l-4.278,4.868l-0,14.762l5.003,7.838c3.519,0.381 5.193,0.585 8.728,0.97c0.032,4.077 0.048,6.116 0.08,10.113l-7.93,-0.387l-0.022,-5.433l-6.033,-0.491l-0.008,-33.473Zm0.001,47.479l-4.435,-16.319l4.253,-7.117l0,-18.007l-3.593,-5.007l3.774,-1.029l0.001,47.479Zm-0,-0l0.007,-6.512l4.737,6.512l-4.744,-0Zm-49.671,18.616l-0.577,-0l-0,1.129l-0.586,0l0,-3l1.163,-0c0.62,-0 0.99,0.425 0.99,0.935c0,0.51 -0.37,0.936 -0.99,0.936Zm-0.029,-1.349l-0.548,0l-0,0.822l0.548,-0c0.265,-0 0.434,-0.164 0.434,-0.409c-0,-0.244 -0.169,-0.413 -0.434,-0.413Zm3.318,2.478l-0.586,-1.197l-0.421,0l-0,1.197l-0.586,0l-0,-3l1.176,-0c0.611,-0 0.973,0.417 0.973,0.918c-0,0.422 -0.257,0.683 -0.548,0.789l0.67,1.293l-0.678,0Zm-0.455,-2.478l-0.552,0l-0,0.793l0.552,-0c0.257,-0 0.425,-0.165 0.425,-0.397c0,-0.231 -0.168,-0.396 -0.425,-0.396Zm1.83,2.478l-0,-3l1.976,-0l0,0.522l-1.39,0l-0,0.704l1.184,0l-0,0.522l-1.184,0l-0,0.73l1.39,-0l0,0.522l-1.976,0Zm3.588,0.025c-0.455,0 -0.801,-0.097 -1.096,-0.395l0.379,-0.38c0.19,0.19 0.447,0.253 0.725,0.253c0.346,-0 0.531,-0.131 0.531,-0.371c-0,-0.105 -0.029,-0.194 -0.093,-0.253c-0.059,-0.054 -0.126,-0.084 -0.265,-0.105l-0.362,-0.051c-0.257,-0.038 -0.447,-0.118 -0.582,-0.248c-0.143,-0.144 -0.215,-0.337 -0.215,-0.59c0,-0.535 0.396,-0.911 1.045,-0.911c0.413,0 0.712,0.102 0.97,0.35l-0.371,0.367c-0.19,-0.181 -0.418,-0.207 -0.616,-0.207c-0.311,0 -0.463,0.173 -0.463,0.38c-0,0.075 0.025,0.156 0.088,0.214c0.059,0.055 0.156,0.102 0.279,0.119l0.353,0.05c0.274,0.038 0.447,0.114 0.574,0.232c0.16,0.152 0.231,0.371 0.231,0.636c0,0.582 -0.484,0.91 -1.112,0.91Zm1.877,-0.025l-0,-3l1.976,-0l0,0.522l-1.391,0l0,0.704l1.184,0l0,0.522l-1.184,0l0,0.73l1.391,-0l0,0.522l-1.976,0Zm4.535,0l-1.188,-1.841l0,1.841l-0.586,0l0,-3l0.523,-0l1.188,1.837l0,-1.837l0.586,-0l-0,3l-0.523,0Zm2.581,-2.478l0,2.478l-0.586,0l0,-2.478l-0.783,0l-0,-0.522l2.153,-0l-0,0.522l-0.784,0Zm1.472,2.478l0,-3l1.976,-0l0,0.522l-1.39,0l-0,0.704l1.184,0l-0,0.522l-1.184,0l-0,0.73l1.39,-0l0,0.522l-1.976,0Zm4.637,-0.286c-0.198,0.198 -0.48,0.286 -0.792,0.286l-1.083,0l0,-3l1.083,-0c0.312,-0 0.594,0.088 0.792,0.286c0.337,0.338 0.304,0.75 0.304,1.201c-0,0.451 0.033,0.89 -0.304,1.227Zm-0.408,-2.006c-0.102,-0.122 -0.237,-0.186 -0.439,-0.186l-0.442,0l-0,1.956l0.442,-0c0.202,-0 0.337,-0.064 0.439,-0.186c0.109,-0.135 0.126,-0.35 0.126,-0.805c-0,-0.455 -0.017,-0.644 -0.126,-0.779Zm3.967,2.292l-1.255,0l-0,-3l1.205,-0c0.586,-0 0.927,0.328 0.927,0.843c-0,0.332 -0.219,0.547 -0.371,0.619c0.181,0.084 0.413,0.274 0.413,0.674c-0,0.561 -0.383,0.864 -0.919,0.864Zm-0.059,-1.26l-0.611,0l0,0.737l0.611,0c0.266,0 0.392,-0.168 0.392,-0.37c0,-0.202 -0.126,-0.367 -0.392,-0.367Zm-0.038,-1.218l-0.573,0l0,0.691l0.573,0c0.249,0 0.388,-0.139 0.388,-0.345c-0,-0.207 -0.139,-0.346 -0.388,-0.346Zm2.973,1.248l-0,1.23l-0.582,0l0,-1.23l-0.902,-1.77l0.637,-0l0.56,1.209l0.552,-1.209l0.637,-0l-0.902,1.77Zm36.083,-0.453l0.893,-1.868l-1.558,-3.578l1.448,-0l0.771,2.021l0.728,-2.021l1.419,-0l-2.362,5.446l-1.339,-0Zm15.407,0.55l0.625,0l0,5.439l-0.625,-0l0,-5.439Zm11.55,0.176c0.079,0.084 0.118,0.189 0.118,0.317c-0,0.127 -0.039,0.232 -0.118,0.316c-0.078,0.083 -0.181,0.124 -0.308,0.124c-0.128,0 -0.231,-0.041 -0.309,-0.124c-0.078,-0.084 -0.117,-0.189 -0.117,-0.316c-0,-0.128 0.039,-0.233 0.117,-0.317c0.078,-0.083 0.181,-0.124 0.309,-0.124c0.127,-0 0.23,0.041 0.308,0.124Zm-16.862,-2.381l0,-2.058c0,-0.45 -0.169,-0.675 -0.507,-0.675c-0.186,-0 -0.327,0.062 -0.422,0.187c-0.096,0.125 -0.144,0.305 -0.144,0.54l0,2.006l-1.323,0l0,-5.585l1.323,0l0,2.198c0.108,-0.167 0.255,-0.296 0.441,-0.386c0.186,-0.091 0.397,-0.136 0.632,-0.136c0.436,-0 0.766,0.135 0.989,0.404c0.223,0.27 0.334,0.669 0.334,1.198l0,2.307l-1.323,0Zm3.85,4.469c0.169,0.171 0.301,0.375 0.397,0.609c0.096,0.236 0.143,0.491 0.143,0.765c0,0.274 -0.047,0.529 -0.143,0.764c-0.096,0.235 -0.228,0.439 -0.397,0.61c-0.169,0.172 -0.369,0.306 -0.599,0.405c-0.23,0.097 -0.48,0.147 -0.749,0.147c-0.27,-0 -0.52,-0.05 -0.75,-0.147c-0.23,-0.099 -0.43,-0.233 -0.599,-0.405c-0.169,-0.171 -0.301,-0.375 -0.397,-0.61c-0.095,-0.235 -0.143,-0.49 -0.143,-0.764c-0,-0.274 0.048,-0.529 0.143,-0.765c0.096,-0.234 0.228,-0.438 0.397,-0.609c0.169,-0.172 0.369,-0.307 0.599,-0.405c0.23,-0.098 0.48,-0.146 0.75,-0.146c0.269,-0 0.519,0.048 0.749,0.146c0.23,0.098 0.43,0.233 0.599,0.405Zm-0.187,1.936c0.059,-0.169 0.088,-0.356 0.088,-0.562c-0,-0.206 -0.029,-0.393 -0.088,-0.562c-0.059,-0.169 -0.144,-0.312 -0.254,-0.43c-0.11,-0.118 -0.241,-0.209 -0.393,-0.276c-0.152,-0.066 -0.323,-0.099 -0.514,-0.099c-0.191,-0 -0.363,0.033 -0.515,0.099c-0.152,0.067 -0.283,0.158 -0.393,0.276c-0.11,0.118 -0.195,0.261 -0.254,0.43c-0.058,0.169 -0.088,0.356 -0.088,0.562c0,0.206 0.03,0.393 0.088,0.562c0.059,0.169 0.144,0.313 0.254,0.43c0.11,0.118 0.241,0.21 0.393,0.276c0.152,0.066 0.324,0.099 0.515,0.099c0.191,-0 0.362,-0.033 0.514,-0.099c0.152,-0.066 0.283,-0.158 0.393,-0.276c0.11,-0.117 0.195,-0.261 0.254,-0.43Zm12.582,-2.385l0.624,0l0,3.624l-0.624,-0l-0,-3.624Zm-1.94,-7.525c0.223,0.27 0.335,0.669 0.335,1.198l-0,2.307l-1.323,0l-0,-2.058c-0,-0.45 -0.169,-0.675 -0.508,-0.675c-0.186,-0 -0.326,0.062 -0.422,0.187c-0.095,0.125 -0.143,0.305 -0.143,0.54l-0,2.006l-1.323,0l-0,-3.792l1.294,0l0.014,0.471c0.098,-0.186 0.241,-0.331 0.43,-0.434c0.188,-0.103 0.408,-0.154 0.658,-0.154c0.436,-0 0.765,0.135 0.988,0.404Zm-8.572,1.492c-0,0.181 -0.015,0.333 -0.045,0.455l-2.498,0c0.132,0.432 0.499,0.647 1.102,0.647c0.147,0 0.312,-0.018 0.496,-0.055c0.184,-0.037 0.354,-0.089 0.511,-0.158l0.419,0.845c-0.191,0.128 -0.423,0.226 -0.695,0.294c-0.271,0.069 -0.555,0.103 -0.848,0.103c-0.353,0 -0.671,-0.047 -0.952,-0.14c-0.282,-0.093 -0.522,-0.226 -0.721,-0.4c-0.198,-0.174 -0.35,-0.386 -0.455,-0.636c-0.105,-0.25 -0.158,-0.529 -0.158,-0.838c-0,-0.298 0.048,-0.572 0.143,-0.819c0.096,-0.247 0.232,-0.459 0.408,-0.636c0.176,-0.176 0.386,-0.313 0.628,-0.411c0.243,-0.098 0.511,-0.147 0.805,-0.147c0.284,-0 0.542,0.044 0.772,0.132c0.23,0.088 0.426,0.214 0.588,0.378c0.161,0.165 0.285,0.363 0.371,0.596c0.085,0.232 0.129,0.496 0.129,0.79Zm-2.565,-0.302l1.329,0c-0.024,-0.2 -0.093,-0.356 -0.205,-0.466c-0.113,-0.11 -0.26,-0.165 -0.441,-0.165c-0.372,-0 -0.6,0.21 -0.683,0.631Zm6.599,-1.021c0.186,0.181 0.332,0.394 0.437,0.639c0.106,0.245 0.158,0.512 0.158,0.801c0,0.29 -0.052,0.556 -0.158,0.801c-0.105,0.245 -0.251,0.459 -0.437,0.64c-0.186,0.181 -0.407,0.322 -0.661,0.422c-0.255,0.101 -0.532,0.151 -0.831,0.151c-0.299,0 -0.576,-0.05 -0.83,-0.151c-0.255,-0.1 -0.475,-0.241 -0.662,-0.422c-0.186,-0.181 -0.332,-0.395 -0.437,-0.64c-0.105,-0.245 -0.158,-0.511 -0.158,-0.801c0,-0.289 0.053,-0.556 0.158,-0.801c0.105,-0.245 0.251,-0.458 0.437,-0.639c0.187,-0.181 0.407,-0.322 0.662,-0.423c0.254,-0.1 0.531,-0.15 0.83,-0.15c0.299,-0 0.576,0.05 0.831,0.15c0.254,0.101 0.475,0.242 0.661,0.423Zm-0.889,2.095c0.152,-0.167 0.228,-0.385 0.228,-0.655c-0,-0.269 -0.076,-0.487 -0.228,-0.654c-0.152,-0.166 -0.353,-0.25 -0.603,-0.25c-0.249,0 -0.45,0.084 -0.602,0.25c-0.152,0.167 -0.228,0.385 -0.228,0.654c-0,0.27 0.076,0.488 0.228,0.655c0.152,0.166 0.353,0.249 0.602,0.249c0.25,0 0.451,-0.083 0.603,-0.249Zm-9.548,5.559c0.226,0.267 0.338,0.658 0.338,1.172l0,2.154l-0.624,-0l-0,-2.044c-0,-0.392 -0.068,-0.678 -0.202,-0.859c-0.135,-0.182 -0.35,-0.272 -0.643,-0.272c-0.324,-0 -0.575,0.106 -0.754,0.319c-0.179,0.214 -0.268,0.511 -0.268,0.893l-0,1.963l-0.625,-0l0,-3.624l0.588,0l0.01,0.644c0.084,-0.2 0.207,-0.364 0.372,-0.489c0.226,-0.172 0.5,-0.257 0.824,-0.257c0.431,-0 0.759,0.133 0.984,0.4Zm10.759,0.151c0.169,0.171 0.301,0.375 0.397,0.609c0.095,0.236 0.143,0.491 0.143,0.765c0,0.274 -0.048,0.529 -0.143,0.764c-0.096,0.235 -0.228,0.439 -0.397,0.61c-0.169,0.172 -0.369,0.306 -0.599,0.405c-0.23,0.097 -0.48,0.147 -0.75,0.147c-0.269,-0 -0.519,-0.05 -0.749,-0.147c-0.23,-0.099 -0.43,-0.233 -0.599,-0.405c-0.169,-0.171 -0.301,-0.375 -0.397,-0.61c-0.095,-0.235 -0.143,-0.49 -0.143,-0.764c-0,-0.274 0.048,-0.529 0.143,-0.765c0.096,-0.234 0.228,-0.438 0.397,-0.609c0.169,-0.172 0.369,-0.307 0.599,-0.405c0.23,-0.098 0.48,-0.146 0.749,-0.146c0.27,-0 0.52,0.048 0.75,0.146c0.23,0.098 0.43,0.233 0.599,0.405Zm-0.187,1.936c0.058,-0.169 0.088,-0.356 0.088,-0.562c-0,-0.206 -0.03,-0.393 -0.088,-0.562c-0.059,-0.169 -0.144,-0.312 -0.254,-0.43c-0.11,-0.118 -0.241,-0.209 -0.393,-0.276c-0.152,-0.066 -0.324,-0.099 -0.515,-0.099c-0.191,-0 -0.362,0.033 -0.514,0.099c-0.152,0.067 -0.283,0.158 -0.393,0.276c-0.111,0.118 -0.195,0.261 -0.254,0.43c-0.058,0.169 -0.088,0.356 -0.088,0.562c0,0.206 0.03,0.393 0.088,0.562c0.059,0.169 0.143,0.313 0.254,0.43c0.11,0.118 0.241,0.21 0.393,0.276c0.152,0.066 0.323,0.099 0.514,0.099c0.191,-0 0.363,-0.033 0.515,-0.099c0.152,-0.066 0.283,-0.158 0.393,-0.276c0.11,-0.117 0.195,-0.261 0.254,-0.43Zm-21.011,-10.197l-0,3.792l-1.242,0l-0.015,-0.433c-0.113,0.176 -0.266,0.312 -0.459,0.408c-0.194,0.095 -0.413,0.143 -0.658,0.143c-0.255,0 -0.488,-0.049 -0.698,-0.147c-0.211,-0.098 -0.392,-0.235 -0.544,-0.412c-0.152,-0.176 -0.271,-0.386 -0.356,-0.632c-0.086,-0.245 -0.129,-0.514 -0.129,-0.808c-0,-0.289 0.044,-0.557 0.132,-0.805c0.089,-0.247 0.212,-0.461 0.371,-0.643c0.159,-0.181 0.347,-0.323 0.563,-0.426c0.215,-0.103 0.448,-0.154 0.698,-0.154c0.23,-0 0.439,0.049 0.628,0.147c0.189,0.098 0.339,0.235 0.452,0.411l0.015,-0.441l1.242,0Zm-1.463,2.503c0.142,-0.155 0.213,-0.357 0.213,-0.607c0,-0.25 -0.071,-0.452 -0.213,-0.606c-0.142,-0.154 -0.326,-0.231 -0.551,-0.231c-0.225,-0 -0.41,0.077 -0.555,0.231c-0.144,0.154 -0.217,0.356 -0.217,0.606c0,0.25 0.073,0.452 0.217,0.607c0.145,0.154 0.33,0.231 0.555,0.231c0.225,0 0.409,-0.077 0.551,-0.231Zm37.282,7.962c-0,0.339 -0.134,0.605 -0.401,0.801c-0.267,0.196 -0.626,0.295 -1.076,0.295c-0.235,-0 -0.468,-0.034 -0.698,-0.1c-0.23,-0.066 -0.414,-0.151 -0.552,-0.253l0.258,-0.449c0.318,0.186 0.649,0.28 0.992,0.28c0.269,-0 0.478,-0.047 0.624,-0.14c0.147,-0.093 0.221,-0.225 0.221,-0.397c-0,-0.078 -0.011,-0.147 -0.033,-0.206c-0.022,-0.058 -0.065,-0.111 -0.129,-0.157c-0.064,-0.047 -0.152,-0.093 -0.264,-0.137c-0.113,-0.044 -0.26,-0.093 -0.441,-0.147c-0.397,-0.117 -0.681,-0.262 -0.853,-0.433c-0.171,-0.172 -0.257,-0.397 -0.257,-0.676c0,-0.314 0.121,-0.565 0.364,-0.754c0.242,-0.188 0.569,-0.282 0.981,-0.282c0.186,-0 0.385,0.028 0.595,0.084c0.211,0.056 0.387,0.129 0.529,0.217l-0.242,0.448c-0.304,-0.152 -0.598,-0.228 -0.882,-0.228c-0.495,0 -0.742,0.15 -0.742,0.448c-0,0.152 0.056,0.274 0.169,0.365c0.112,0.09 0.308,0.177 0.588,0.26c0.235,0.069 0.432,0.14 0.591,0.213c0.159,0.074 0.288,0.156 0.386,0.247c0.098,0.09 0.168,0.193 0.209,0.308c0.042,0.115 0.063,0.246 0.063,0.393Zm-40.372,-3.895l-1.911,0l0,4.866l-0.661,-0l-0,-4.866l-1.911,0l0,-0.565l4.483,-0l0,0.565Zm-2.164,-4.586l-0.331,0.008l-0.404,-0l-0,1.8l-1.411,0l-0,-5.585l2.013,0c0.343,0 0.65,0.043 0.919,0.129c0.27,0.085 0.497,0.209 0.684,0.371c0.186,0.161 0.329,0.36 0.429,0.595c0.101,0.235 0.151,0.5 0.151,0.794c-0,0.309 -0.073,0.594 -0.22,0.856c-0.147,0.262 -0.356,0.472 -0.625,0.628l1.389,2.212l-1.617,0l-0.977,-1.808Zm-0.735,-2.66l-0,1.551l0.404,-0c0.647,-0 0.97,-0.262 0.97,-0.786c-0,-0.51 -0.319,-0.765 -0.955,-0.765l-0.419,0Zm5.478,8.885c0.145,0.157 0.256,0.347 0.335,0.57c0.078,0.223 0.117,0.469 0.117,0.738c-0,0.103 -0.001,0.174 -0.004,0.214c-0.002,0.038 -0.006,0.083 -0.011,0.132l-2.795,-0c0.034,0.35 0.152,0.619 0.356,0.805c0.244,0.222 0.6,0.334 1.065,0.334c0.358,-0 0.725,-0.076 1.102,-0.228l0.236,0.456c-0.167,0.103 -0.372,0.184 -0.614,0.242c-0.243,0.059 -0.494,0.089 -0.753,0.089c-0.637,-0 -1.132,-0.166 -1.485,-0.497c-0.353,-0.33 -0.529,-0.792 -0.529,-1.385c0,-0.289 0.044,-0.555 0.132,-0.797c0.089,-0.243 0.212,-0.451 0.372,-0.625c0.159,-0.174 0.349,-0.308 0.569,-0.404c0.221,-0.096 0.463,-0.143 0.728,-0.143c0.24,-0 0.46,0.044 0.661,0.132c0.201,0.088 0.374,0.21 0.518,0.367Zm-1.216,0.037c-0.358,-0 -0.639,0.124 -0.845,0.371c-0.161,0.193 -0.258,0.445 -0.293,0.753l2.205,0c-0.006,-0.119 -0.02,-0.237 -0.049,-0.352c-0.037,-0.148 -0.097,-0.277 -0.18,-0.39c-0.084,-0.113 -0.194,-0.205 -0.331,-0.275c-0.137,-0.072 -0.306,-0.107 -0.507,-0.107Zm35.074,-0.048c0.142,0.155 0.253,0.341 0.331,0.559c0.078,0.218 0.117,0.462 0.117,0.731c0,0.103 -0.001,0.174 -0.003,0.213c-0.003,0.039 -0.007,0.083 -0.011,0.132l-2.775,0c0.073,0.779 0.534,1.169 1.386,1.169c0.387,-0 0.776,-0.091 1.168,-0.272l0.221,0.47c-0.187,0.113 -0.402,0.201 -0.647,0.265c-0.245,0.063 -0.502,0.096 -0.772,0.096c-0.627,-0 -1.113,-0.167 -1.458,-0.5c-0.346,-0.334 -0.519,-0.804 -0.519,-1.411c0,-0.28 0.044,-0.538 0.133,-0.776c0.088,-0.237 0.21,-0.443 0.367,-0.617c0.157,-0.174 0.343,-0.308 0.559,-0.404c0.215,-0.096 0.45,-0.143 0.705,-0.143c0.25,-0 0.477,0.042 0.68,0.128c0.203,0.086 0.376,0.206 0.518,0.36Zm-1.235,0.048c-0.343,-0 -0.616,0.126 -0.819,0.378c-0.154,0.191 -0.248,0.43 -0.282,0.717l2.186,-0c-0.001,-0.005 -0.001,-0.011 -0.001,-0.015c-0.002,-0.054 -0.008,-0.1 -0.018,-0.139c-0.083,-0.628 -0.439,-0.941 -1.066,-0.941Zm-28.434,2.572l0.228,0.463c-0.157,0.088 -0.337,0.157 -0.54,0.206c-0.203,0.049 -0.408,0.074 -0.614,0.074c-0.303,-0 -0.579,-0.045 -0.827,-0.133c-0.247,-0.088 -0.458,-0.216 -0.631,-0.382c-0.175,-0.167 -0.308,-0.367 -0.401,-0.603c-0.093,-0.235 -0.14,-0.497 -0.14,-0.786c0,-0.289 0.048,-0.552 0.144,-0.79c0.095,-0.238 0.229,-0.442 0.4,-0.614c0.172,-0.171 0.379,-0.304 0.621,-0.4c0.243,-0.096 0.508,-0.143 0.797,-0.143c0.387,-0 0.76,0.097 1.118,0.293l-0.243,0.456c-0.127,-0.063 -0.264,-0.111 -0.412,-0.143c-0.146,-0.032 -0.291,-0.048 -0.433,-0.048c-0.416,-0 -0.746,0.122 -0.989,0.368c-0.242,0.245 -0.363,0.575 -0.363,0.992c-0,0.431 0.123,0.768 0.371,1.01c0.247,0.243 0.589,0.364 1.025,0.364c0.284,-0 0.581,-0.062 0.889,-0.184Zm3.917,-2.705c0.228,0.27 0.342,0.66 0.342,1.169l0,2.154l-0.624,-0l-0,-2.044c-0,-0.392 -0.069,-0.678 -0.206,-0.859c-0.138,-0.182 -0.353,-0.272 -0.647,-0.272c-0.323,-0 -0.575,0.106 -0.753,0.319c-0.179,0.214 -0.268,0.511 -0.268,0.893l-0,1.963l-0.625,-0l-0,-5.439l0.625,0l-0,2.409c0.087,-0.187 0.212,-0.341 0.374,-0.457c0.221,-0.16 0.485,-0.239 0.794,-0.239c0.431,-0 0.76,0.134 0.988,0.403Zm1.571,-4.254c-0.194,0.034 -0.393,0.051 -0.599,0.051c-0.955,0 -1.433,-0.497 -1.433,-1.492l-0,-1.352l-0.639,0l-0,-1.066l0.639,0l-0,-0.977l1.323,-0l-0,0.977l1.234,0l-0.33,1.066l-0.904,0l-0,1.124c-0,0.231 0.036,0.391 0.11,0.482c0.074,0.09 0.198,0.136 0.375,0.136c0.2,-0 0.397,-0.037 0.588,-0.111l0.132,1.022c-0.137,0.059 -0.303,0.105 -0.496,0.14Zm17.883,3.953l0.61,0l-0,3.359c-0,1.426 -0.654,2.138 -1.962,2.138c-0.137,0 -0.276,-0.008 -0.415,-0.025c-0.14,-0.017 -0.272,-0.041 -0.397,-0.07c-0.125,-0.029 -0.24,-0.064 -0.346,-0.103c-0.105,-0.039 -0.19,-0.083 -0.253,-0.132l0.161,-0.507c0.299,0.191 0.713,0.286 1.242,0.286c0.461,0 0.8,-0.122 1.018,-0.367c0.218,-0.245 0.327,-0.63 0.327,-1.154l-0,-0.426c-0.12,0.206 -0.277,0.373 -0.47,0.499c-0.255,0.167 -0.552,0.251 -0.889,0.251c-0.255,-0 -0.488,-0.047 -0.699,-0.14c-0.21,-0.093 -0.392,-0.223 -0.543,-0.39c-0.152,-0.166 -0.27,-0.367 -0.353,-0.602c-0.083,-0.236 -0.125,-0.495 -0.125,-0.779c0,-0.275 0.045,-0.53 0.136,-0.765c0.09,-0.235 0.217,-0.439 0.379,-0.613c0.161,-0.174 0.351,-0.311 0.569,-0.412c0.218,-0.1 0.454,-0.15 0.709,-0.15c0.319,-0 0.6,0.086 0.845,0.26c0.179,0.127 0.326,0.291 0.441,0.49l0.015,-0.648Zm-0.327,2.804c0.11,-0.12 0.197,-0.262 0.261,-0.426c0.063,-0.164 0.095,-0.344 0.095,-0.54c0,-0.206 -0.029,-0.395 -0.088,-0.566c-0.059,-0.172 -0.142,-0.317 -0.25,-0.437c-0.107,-0.12 -0.239,-0.213 -0.393,-0.28c-0.154,-0.066 -0.325,-0.099 -0.511,-0.099c-0.181,-0 -0.348,0.034 -0.499,0.103c-0.152,0.069 -0.283,0.164 -0.394,0.287c-0.11,0.122 -0.196,0.268 -0.257,0.437c-0.061,0.169 -0.092,0.354 -0.092,0.555c0,0.416 0.112,0.746 0.335,0.988c0.223,0.243 0.525,0.364 0.907,0.364c0.176,-0 0.341,-0.034 0.493,-0.103c0.151,-0.069 0.283,-0.163 0.393,-0.283Zm-44.011,-8.645l0.713,-4.068c0.138,0.02 0.275,0.044 0.409,0.072l-0.712,4.068c-0.133,-0.033 -0.27,-0.058 -0.41,-0.072Zm-2.153,0.721c-0.159,0.147 -0.301,0.312 -0.422,0.492l-3.13,-2.647c0.13,-0.172 0.268,-0.337 0.413,-0.496l3.139,2.651Zm5.472,-3.831l-2.048,3.569c-0.108,-0.073 -0.221,-0.137 -0.338,-0.195l2.051,-3.572c0.113,0.062 0.225,0.129 0.335,0.198Zm1.549,1.327c0.074,0.085 0.146,0.172 0.215,0.26l-3.128,2.641c-0.066,-0.091 -0.138,-0.177 -0.215,-0.259l3.128,-2.642Zm-7.84,3.914l-3.836,-1.405c0.072,-0.238 0.157,-0.471 0.253,-0.697l3.844,1.409c-0.117,0.215 -0.205,0.448 -0.261,0.693Zm5.463,0.623c0,-0.323 -0.056,-0.632 -0.157,-0.92l4.157,-0c0.038,0.294 0.06,0.595 0.06,0.9c0,0.264 -0.016,0.524 -0.045,0.78l-2.229,0.001l2.098,0.768c-0.116,0.508 -0.287,0.996 -0.508,1.454l-2.39,-0.875l1.952,1.647c-0.269,0.412 -0.581,0.792 -0.929,1.136l-2.184,-1.845l1.428,2.489c-0.374,0.275 -0.776,0.512 -1.203,0.707l-1.556,-2.715l0.541,3.084c-0.398,0.11 -0.81,0.183 -1.234,0.219l-0.582,-3.325l-0.581,3.323c-0.404,-0.036 -0.798,-0.106 -1.179,-0.208l0.622,-3.556l-1.784,3.125c-0.334,-0.161 -0.653,-0.349 -0.955,-0.56l1.899,-3.325l-2.91,2.46c-0.235,-0.244 -0.452,-0.505 -0.649,-0.782l3.113,-2.633l-3.813,1.398c-0.123,-0.281 -0.228,-0.573 -0.313,-0.872l3.837,-1.407c0.222,1.305 1.358,2.299 2.727,2.299c1.528,0 2.767,-1.239 2.767,-2.767Zm-5.535,-0c0,0.13 0.01,0.258 0.027,0.383l-4.075,0c-0.007,-0.133 -0.012,-0.267 -0.012,-0.403c-0,-0.145 0.005,-0.288 0.014,-0.431l4.084,-0c-0.024,0.147 -0.038,0.297 -0.038,0.451Zm1.164,-2.254l-2.048,-3.574c0.155,-0.099 0.313,-0.192 0.476,-0.278l2.052,3.577c-0.17,0.076 -0.331,0.168 -0.48,0.275Zm0.183,-4.491c0.149,-0.032 0.3,-0.058 0.453,-0.08l0.713,4.07c-0.155,0.014 -0.307,0.041 -0.454,0.079l-0.712,-4.069Zm-26.657,-46.813l-0.009,33.507l2.708,2.711l-8.871,-0l-0.038,-30.54l4.441,-0.996l-0.001,-6.756l4.248,-1.158l-2.478,3.232Zm23.869,-1.088c1.586,-0.345 3.084,0.682 3.082,2.305c-0.003,2.695 -0.006,5.841 -0.009,9.118c-0.002,1.593 -1.167,2.947 -2.742,3.187l-3.713,0.515l0.029,-14.369l3.353,-0.756Zm-3.399,21.662l1.681,-0.162l4.199,15.806l-5.911,-0c0.01,-5.33 0.021,-10.413 0.031,-15.644Zm-6.821,-26.852l1.938,-0.529l-0.095,43.025l-1.935,-0l0.016,-7.534l-8.106,0.424c-0.743,0.039 -1.367,-0.557 -1.366,-1.301l0.009,-7.858l7.589,-0.848l0.015,-7.741l-7.597,1.288l0.009,-8.255c0,-0.607 0.424,-1.137 1.017,-1.27l8.489,-1.913l0.017,-7.488Zm-28.151,13.81l4.442,-0.993l0.068,29.679l-6.059,-0l-0.137,-34.36l1.664,-0.453l0.022,6.127Zm-39.596,4.665l2.528,-0.689l-2.528,3.681l0,-2.992Zm0,24.021l0,-3.189l2.738,3.189l-2.738,-0Zm33.872,-33.258l0.092,17.79l-5.344,-16.358l5.252,-1.432Zm-21.545,8.061l0.171,22.931l2.267,2.266l-6.509,-0l2.698,-3.706l-0.028,-4.259l-3.458,0.278l0.016,3.071l-4.028,0.242l-0.045,-16.183l3.987,-0.89l0.016,3.08l3.442,-0.667l-0.028,-4.528l-2.588,-2.706l6.273,-1.711l-2.186,2.782Zm16.474,25.197l-0.11,-17.82l5.393,17.82l-5.283,-0Zm-5.856,-30.278l1.634,-0.446l0.215,30.724l-1.631,-0l-0.039,-5.351l-6.177,0.298c-0.519,0.025 -0.955,-0.388 -0.958,-0.908l-0.041,-5.608l5.497,-0.611l-0.04,-5.476l-5.495,0.921l-0.042,-5.878c-0.004,-0.431 0.298,-0.809 0.719,-0.903l6.397,-1.426l-0.039,-5.336Zm106.585,24.006l7.005,0.307l1.236,5.965l-9.339,-0l1.098,-6.272Zm3.135,-18.301c0.118,0.023 0.176,0.034 0.294,0.057c0.937,5.018 1.405,7.671 2.337,12.517l-4.677,-0.45c0.816,-4.869 1.225,-7.439 2.046,-12.124Zm32.246,9.193c0.023,-2.454 0.035,-3.477 0.059,-5.996l7.032,1.582l-0,15.355c-2.847,-0.124 -4.253,-0.186 -7.065,-0.31c-0.006,-2.456 -0.009,-3.44 -0.015,-5.831c2.003,0.222 3.004,0.339 5.005,0.56c-0.001,-1.732 -0.001,-2.808 -0.003,-4.54c-2.004,-0.327 -3.007,-0.492 -5.013,-0.82Zm-63.711,-27.941l6.975,1.902l0.081,7.241l6.779,1.542l0.384,32.636l-14.018,-0l4.699,-5.837l-0.128,-12.653l-5.054,-7.179l-8.914,-1.437l-0.041,-10.682l7.822,1.769l0.042,5.192l6.031,1.172l-0.068,-6.821l-4.59,-6.845Zm34.086,9.296l11.145,3.039l-3.438,3.39l0.227,23.035l3.677,4.561l-4.357,-0l-7.254,-34.025Zm-8.618,-2.35l3.428,0.934l-6.487,35.441l-3.241,-0l-0.443,-31.523l6.826,1.554l-0.083,-6.406Zm36.204,36.375l-8.045,-0c1.405,-1.638 2.217,-2.525 3.627,-4.032l-0.052,-12.365l-8.185,-1.323l0.039,5.51l3.516,0.391l0.033,6.707l-5.99,-0.289c-0.056,-6.562 -0.113,-13.305 -0.169,-19.867l6.072,1.364c0.009,1.34 0.013,2.125 0.022,3.454l4.637,0.894l-0.021,-4.369l-3.493,-4.761l7.92,2.153l-2.338,1.792l0.092,22.418l2.335,2.323Zm6.731,-27.308c0.344,0.203 0.534,0.408 0.523,0.782l-0,0.006c-0.013,0.426 -0.279,0.607 -0.647,0.523c-0.259,-0.059 -0.517,-0.235 -0.715,-0.519l0.232,-0.29c0.149,0.2 0.307,0.342 0.503,0.388c0.153,0.036 0.248,-0.019 0.252,-0.146l0,-0.006c0.004,-0.12 -0.053,-0.196 -0.336,-0.36c-0.34,-0.198 -0.559,-0.377 -0.546,-0.814l-0,-0.006c0.011,-0.4 0.268,-0.595 0.617,-0.498c0.249,0.068 0.458,0.225 0.626,0.447l-0.205,0.304c-0.148,-0.172 -0.294,-0.292 -0.438,-0.33c-0.144,-0.039 -0.222,0.025 -0.225,0.131l-0.001,0.006c-0.004,0.144 0.068,0.21 0.36,0.382Zm2.198,-0.277l0.405,0.11l-0.064,2.048l-0.373,-0.084l0.042,-1.349l-0.508,0.77l-0.01,-0.002l-0.449,-1.006l-0.041,1.37l-0.369,-0.083l0.064,-2.128l0.405,0.111l0.422,1.004l0.476,-0.761Z" style="fill:#fff;"/></svg>