<?xml version="1.0" encoding="UTF-8" standalone="no"?><!DOCTYPE svg PUBLIC "-//W3C//DTD SVG 1.1//EN" "http://www.w3.org/Graphics/SVG/1.1/DTD/svg11.dtd"><svg width="100%" height="100%" viewBox="0 0 100 47" version="1.1" xmlns="http://www.w3.org/2000/svg" xmlns:xlink="http://www.w3.org/1999/xlink" xml:space="preserve" xmlns:serif="http://www.serif.com/" style="fill-rule:evenodd;clip-rule:evenodd;stroke-linejoin:round;stroke-miterlimit:2;"><g><path d="M14.061,23.629l12.397,5.242c2.718,1.109 4.507,2.482 5.367,4.119c0.86,1.636 1.289,3.785 1.289,6.448l0,1.414c0,0.666 -0.305,0.86 -0.915,0.583l-31.117,-13.562c-0.721,-0.222 -1.082,-0.805 -1.082,-1.748l0,-5.075c0,-0.721 0.361,-1.248 1.082,-1.581l30.784,-13.478c0.333,-0.167 0.624,-0.181 0.874,-0.042c0.25,0.139 0.374,0.347 0.374,0.624l0,7.571c0,0.888 -0.416,1.526 -1.248,1.914l-17.805,7.571Z" style="fill:#fff;fill-rule:nonzero;"/><path d="M37.025,46.26c-0.388,0 -0.624,-0.124 -0.707,-0.374c-0.084,-0.25 -0.07,-0.485 0.041,-0.707l18.638,-44.014c0.332,-0.777 0.915,-1.165 1.747,-1.165l2.745,0c1.942,0 3.218,0.679 3.828,2.038c0.61,1.359 0.527,2.982 -0.25,4.868l-16.141,38.273c-0.333,0.721 -0.888,1.081 -1.664,1.081l-8.237,0Z" style="fill:#fff;fill-rule:nonzero;"/><path d="M85.698,23.629l-17.805,-7.571c-0.832,-0.388 -1.248,-1.026 -1.248,-1.914l-0,-7.571c-0,-0.277 0.125,-0.485 0.374,-0.624c0.25,-0.139 0.541,-0.125 0.874,0.042l30.868,13.478c0.665,0.333 0.998,0.86 0.998,1.581l0,5.075c0,0.888 -0.333,1.47 -0.998,1.748l-31.118,13.562c-0.665,0.277 -0.998,0.083 -0.998,-0.583l-0,-1.414c-0,-2.663 0.444,-4.812 1.331,-6.448c0.888,-1.637 2.663,-3.01 5.325,-4.119l12.397,-5.242Z" style="fill:#fff;fill-rule:nonzero;"/></g></svg>