<?xml version="1.0" encoding="UTF-8" standalone="no"?><!DOCTYPE svg PUBLIC "-//W3C//DTD SVG 1.1//EN" "http://www.w3.org/Graphics/SVG/1.1/DTD/svg11.dtd"><svg width="100%" height="100%" viewBox="0 0 45 51" version="1.1" xmlns="http://www.w3.org/2000/svg" xmlns:xlink="http://www.w3.org/1999/xlink" xml:space="preserve" xmlns:serif="http://www.serif.com/" style="fill-rule:evenodd;clip-rule:evenodd;stroke-linejoin:round;stroke-miterlimit:2;"><path d="M32.599,49.353c-1.094,-0.575 -1.123,-2.061 -1.123,-2.061c0,-0 -0.05,-2.62 -0.016,-5.124c0.033,-2.503 -0.19,-5.434 -0.19,-5.434c0,-0 -0.094,-0.833 -0.586,-1.767c-0.492,-0.934 -1.418,-1.921 -1.418,-1.921c-0,-0 4.014,-0.05 7.507,-1.718c3.494,-1.667 5.026,-4.203 5.026,-4.203c-0,-0 1.672,-2.692 2.203,-5.029c0.531,-2.337 0.274,-5.216 0.274,-5.216c0,-0 0.059,-1.729 -0.664,-4.022c-0.724,-2.293 -2.78,-4.162 -2.78,-4.162c0,-0 0.655,-2.02 0.765,-4.395c0.109,-2.375 -0.971,-4.244 -0.971,-4.244c0,0 -0.912,-0.385 -4.44,0.843c-3.528,1.229 -4.607,2.441 -4.607,2.441c-0,-0 -2.829,-1.027 -7.788,-1.111c-4.958,-0.085 -7.788,1.111 -7.788,1.111c0,-0 -1.079,-1.212 -4.607,-2.441c-3.528,-1.228 -4.44,-0.843 -4.44,-0.843c-0,0 -1.08,1.869 -0.97,4.244c0.109,2.375 0.764,4.395 0.764,4.395c0,-0 -2.056,1.869 -2.78,4.162c-0.723,2.293 -0.664,4.022 -0.664,4.022c-0,-0 -0.257,2.879 0.274,5.216c0.531,2.337 2.204,5.029 2.204,5.029c-0,-0 1.532,2.536 5.025,4.203c3.493,1.668 7.508,1.718 7.508,1.718c-0,-0 -0.927,0.987 -1.419,1.921c-0.491,0.934 -0.586,1.767 -0.586,1.767c-0,-0 -0.007,0.092 -0.019,0.258c-0.565,0.322 -3.014,1.839 -5.583,1.146c-2.608,-0.704 -9.826,-9.814 -10.679,-6.188c-0.339,1.442 2.178,1.725 3.03,2.953c1.22,1.757 1.231,3.857 3.112,5.281c3.049,2.308 5.465,3.043 9.947,1.763c0.001,0.074 0.001,0.148 0.002,0.221c0.034,2.504 -0.016,5.124 -0.016,5.124c0,-0 -0.028,1.486 -1.123,2.061c-0.563,0.296 4.344,1.274 9.147,1.266c4.544,-0.008 9.002,-0.986 8.469,-1.266Z" style="fill:#fff;"/></svg>