<?xml version="1.0" encoding="UTF-8" standalone="no"?><!DOCTYPE svg PUBLIC "-//W3C//DTD SVG 1.1//EN" "http://www.w3.org/Graphics/SVG/1.1/DTD/svg11.dtd"><svg width="100%" height="100%" viewBox="0 0 101 70" version="1.1" xmlns="http://www.w3.org/2000/svg" xmlns:xlink="http://www.w3.org/1999/xlink" xml:space="preserve" xmlns:serif="http://www.serif.com/" style="fill-rule:evenodd;clip-rule:evenodd;stroke-linejoin:round;stroke-miterlimit:2;"><path id="Layer-1" serif:id="Layer 1" d="M0.631,17.198c-0.347,0 -0.631,-0.284 -0.631,-0.63l0,-15.591c0,-0.347 0.284,-0.631 0.631,-0.631l3.154,0c0.347,0 0.63,0.284 0.63,0.631l-0,15.591c-0,0.346 -0.283,0.63 -0.63,0.63l-3.154,0Zm7.254,4.48c-0.347,-0 -0.63,-0.284 -0.63,-0.631l-0,-20.07c-0,-0.346 0.283,-0.63 0.63,-0.63l3.754,-0c0.409,-0 0.662,0.189 0.788,0.568l4.32,12.93c0.032,0.158 0.285,0.158 0.285,-0.062l-0,-6.86c-0,-0.347 0.283,-0.632 0.631,-0.632l3.153,-0c0.347,-0 0.631,0.285 0.631,0.632l-0,16.919c-0,0.347 -0.284,0.631 -0.631,0.631l-3.721,-0c-0.442,-0 -0.726,-0.19 -0.851,-0.536l-4.291,-14.065c-0.031,-0.158 -0.283,-0.158 -0.283,0.063l-0,11.112c-0,0.347 -0.283,0.631 -0.631,0.631l-3.154,-0Zm20.028,0.746c-0.347,-0 -0.63,-0.284 -0.63,-0.631l-0,-16.716c-0,-0.221 -0.095,-0.315 -0.316,-0.315l-9.057,-0c-0.347,-0 -0.631,-0.284 -0.631,-0.631l-0,-3.154c-0,-0.347 0.284,-0.631 0.631,-0.631l18.046,-0c0.347,-0 0.63,0.284 0.63,0.631l-0,3.154c-0,0.347 -0.283,0.631 -0.63,0.631l-3.943,-0c-0.221,-0 -0.315,0.094 -0.315,0.315l-0,16.716c-0,0.347 -0.283,0.631 -0.631,0.631l-3.154,-0Zm15.928,0.347c-1.64,-0 -3.059,-0.379 -4.227,-1.136c-1.167,-0.757 -2.049,-1.766 -2.617,-3.059c-0.599,-1.293 -0.883,-3.69 -0.883,-7.191c-0,-3.501 0.284,-5.898 0.883,-7.191c1.135,-2.554 3.564,-4.194 6.844,-4.194c3.28,-0 5.708,1.64 6.844,4.194c0.599,1.293 0.883,3.69 0.883,7.191c-0,3.501 -0.284,5.898 -0.883,7.191c-0.568,1.293 -1.45,2.302 -2.618,3.059c-1.167,0.757 -2.586,1.136 -4.226,1.136Zm-0,-4.447c1.388,-0 2.302,-0.505 2.775,-1.514c0.284,-0.662 0.442,-2.46 0.442,-5.425c-0,-2.964 -0.158,-4.762 -0.442,-5.425c-0.473,-1.009 -1.387,-1.514 -2.775,-1.514c-1.388,0 -2.303,0.505 -2.776,1.514c-0.283,0.663 -0.441,2.461 -0.441,5.425c-0,2.965 0.158,4.763 0.441,5.425c0.473,1.009 1.388,1.514 2.776,1.514Zm17.662,12.933c-0.347,0 -0.63,-0.284 -0.63,-0.63l-0,-25.55c-0,-0.221 -0.096,-0.315 -0.316,-0.315l-4.573,0c-0.348,0 -0.632,-0.284 -0.632,-0.631l-0,-3.154c-0,-0.346 0.284,-0.631 0.632,-0.631l17.914,-0c0.347,-0 0.63,0.285 0.63,0.631l-0,3.154c-0,0.347 -0.283,0.631 -0.63,0.631l-8.295,0c-0.221,0 -0.316,0.094 -0.316,0.315l-0,25.55c-0,0.346 -0.283,0.63 -0.63,0.63l-3.154,0Zm9.619,-8.833c-0.347,-0 -0.631,-0.284 -0.631,-0.631l0,-14.581c0,-0.347 0.284,-0.631 0.631,-0.631l3.154,-0c0.347,-0 0.63,0.284 0.63,0.631l0,3.046c0,0.221 0.096,0.316 0.316,0.316l4.731,-0c0.221,-0 0.315,-0.095 0.315,-0.316l0,-9.281c0,-0.347 0.284,-0.631 0.632,-0.631l3.153,-0c0.346,-0 0.631,0.284 0.631,0.631l0,23.497c0,0.347 -0.285,0.631 -0.631,0.631l-3.153,-0c-0.348,-0 -0.632,-0.284 -0.632,-0.631l0,-9.169c0,-0.221 -0.094,-0.316 -0.315,-0.316l-4.731,-0c-0.22,-0 -0.316,0.095 -0.316,0.316l0,6.488c0,0.347 -0.409,0.631 -0.788,0.631l-2.996,-0Zm17.032,-0c-0.347,-0 -0.63,-0.284 -0.63,-0.631l0,-20.816c0,-0.347 0.283,-0.631 0.63,-0.631l11.449,-0c0.34,-0 0.621,0.276 0.63,0.615l-0,3.186c-0.009,0.34 -0.29,0.615 -0.63,0.615l-7.349,-0c-0.221,-0 -0.316,0.094 -0.316,0.315l0,3.785c0,0.221 0.095,0.316 0.316,0.316l5.283,-0c0.347,-0 0.631,0.283 0.631,0.63l0,3.154c0,0.347 -0.284,0.631 -0.631,0.631l-5.283,-0c-0.221,-0 -0.316,0.095 -0.316,0.315l0,3.785c0,0.221 0.095,0.315 0.316,0.315l2.756,-0c0.346,-0 0.63,0.284 0.63,0.631l0,3.154c0,0.347 -0.284,0.631 -0.63,0.631l-6.856,-0Zm-66.076,26.495c-0.346,0 -0.631,-0.283 -0.631,-0.631l-0,-20.816c-0,-0.347 0.285,-0.63 0.631,-0.63l6.182,0c3.28,0 5.709,1.64 6.844,4.194c0.599,1.293 0.883,3.596 0.883,6.844c-0,3.249 -0.284,5.551 -0.883,6.845c-1.135,2.554 -3.564,4.194 -6.844,4.194l-6.182,0Zm6.182,-4.447c1.388,0 2.303,-0.504 2.776,-1.514c0.283,-0.662 0.441,-2.334 0.441,-5.078c-0,-2.744 -0.158,-4.415 -0.441,-5.077c-0.473,-1.01 -1.388,-1.515 -2.776,-1.515l-2.082,0c-0.22,0 -0.315,0.095 -0.315,0.316l-0,12.553c-0,0.22 0.095,0.315 0.315,0.315l2.082,0Zm10.408,4.448c-0.347,-0 -0.63,-0.284 -0.63,-0.631l-0,-20.816c-0,-0.347 0.283,-0.631 0.63,-0.631l11.449,-0c0.346,-0 0.63,0.284 0.63,0.631l-0,3.154c-0,0.347 -0.284,0.631 -0.63,0.631l-7.349,-0c-0.221,-0 -0.316,0.094 -0.316,0.314l-0,3.786c-0,0.22 0.095,0.316 0.316,0.316l7.096,-0c0.347,-0 0.631,0.283 0.631,0.63l-0,3.154c-0,0.347 -0.284,0.63 -0.631,0.63l-7.096,-0c-0.221,-0 -0.316,0.095 -0.316,0.316l-0,3.784c-0,0.222 0.095,0.316 0.316,0.316l7.475,-0c0.347,-0 0.631,0.284 0.631,0.632l-0,3.153c-0,0.347 -0.284,0.631 -0.631,0.631l-11.575,-0Zm14.729,-0c-0.346,-0 -0.631,-0.284 -0.631,-0.631l0,-20.816c0,-0.347 0.285,-0.631 0.631,-0.631l5.473,-0c0.346,-0 0.63,0.284 0.63,0.631l0,3.154c0,0.347 -0.284,0.631 -0.63,0.631l-1.373,-0c-0.22,-0 -0.315,0.094 -0.315,0.314l0,3.786c0,0.22 0.095,0.316 0.315,0.316l7.097,-0c0.346,-0 0.63,0.283 0.63,0.63l0,3.154c0,0.347 -0.284,0.63 -0.63,0.63l-7.097,-0c-0.22,-0 -0.315,0.095 -0.315,0.316l0,3.784c0,0.222 0.095,0.316 0.315,0.316l7.475,-0c0.347,-0 0.631,0.284 0.631,0.632l0,3.153c0,0.347 -0.284,0.631 -0.631,0.631l-11.575,-0Zm14.73,-0.001c-0.347,-0 -0.631,-0.283 -0.631,-0.63l-0,-20.816c-0,-0.347 0.284,-0.632 0.631,-0.632l6.938,-0c1.987,-0 3.564,0.6 4.795,1.831c1.23,1.229 1.829,2.806 1.829,4.793c-0,1.987 -0.599,3.564 -1.829,4.794c-1.231,1.23 -2.808,1.83 -4.795,1.83l-2.838,-0c-0.221,-0 -0.316,0.094 -0.316,0.315l-0,7.885c-0,0.347 -0.283,0.63 -0.63,0.63l-3.154,-0Zm6.781,-13.246c1.293,-0 2.208,-0.914 2.208,-2.208c-0,-1.293 -0.915,-2.208 -2.208,-2.208l-2.681,-0c-0.221,-0 -0.316,0.095 -0.316,0.316l-0,3.784c-0,0.221 0.095,0.316 0.316,0.316l2.681,-0Zm-1.23,13.259c-0.185,-0.08 -0.329,-0.197 -0.432,-0.347c-0.101,-0.15 -0.151,-0.324 -0.151,-0.523l0,-0.06c0,-0.022 0.005,-0.037 0.017,-0.049c0.011,-0.012 0.028,-0.018 0.048,-0.018l0.686,-0c0.021,-0 0.037,0.006 0.049,0.018c0.012,0.012 0.018,0.027 0.018,0.049l0,0.026c0,0.082 0.043,0.156 0.13,0.219c0.087,0.063 0.203,0.094 0.347,0.094c0.11,0 0.188,-0.022 0.235,-0.068c0.047,-0.045 0.07,-0.096 0.07,-0.153c0,-0.064 -0.029,-0.112 -0.087,-0.145c-0.06,-0.033 -0.167,-0.072 -0.324,-0.12l-0.129,-0.035c-0.291,-0.088 -0.536,-0.206 -0.734,-0.355c-0.198,-0.148 -0.296,-0.361 -0.296,-0.64c0,-0.187 0.05,-0.351 0.15,-0.494c0.101,-0.142 0.238,-0.252 0.415,-0.329c0.175,-0.077 0.372,-0.115 0.59,-0.115c0.23,-0 0.438,0.043 0.626,0.127c0.187,0.086 0.335,0.208 0.442,0.364c0.108,0.155 0.162,0.335 0.162,0.534l0,0.042c0,0.02 -0.006,0.036 -0.018,0.048c-0.012,0.011 -0.028,0.017 -0.049,0.017l-0.685,0c-0.021,0 -0.037,-0.006 -0.049,-0.017c-0.012,-0.012 -0.018,-0.028 -0.018,-0.048l0,-0.005c0,-0.09 -0.039,-0.169 -0.119,-0.243c-0.08,-0.072 -0.188,-0.107 -0.323,-0.107c-0.094,-0 -0.169,0.02 -0.224,0.057c-0.054,0.039 -0.081,0.092 -0.081,0.16c0,0.053 0.02,0.097 0.059,0.135c0.04,0.037 0.101,0.072 0.185,0.105c0.081,0.034 0.208,0.078 0.379,0.131c0.024,0.009 0.128,0.041 0.312,0.095c0.185,0.054 0.339,0.154 0.463,0.297c0.123,0.143 0.185,0.315 0.185,0.52c0,0.197 -0.05,0.367 -0.15,0.511c-0.1,0.143 -0.24,0.252 -0.42,0.33c-0.181,0.076 -0.39,0.114 -0.628,0.114c-0.248,-0 -0.465,-0.041 -0.651,-0.122Zm4.088,-3.01l0.69,-0c0.021,-0 0.037,0.006 0.049,0.018c0.012,0.012 0.017,0.028 0.017,0.048l-0,2.964c-0,0.021 -0.005,0.037 -0.017,0.049c-0.012,0.012 -0.028,0.018 -0.049,0.018l-0.698,-0c-0.021,-0 -0.038,-0.006 -0.049,-0.018c-0.012,-0.012 -0.019,-0.028 -0.019,-0.049l-0,-1.605c-0,-0.012 -0.002,-0.019 -0.008,-0.021c-0.005,-0.001 -0.012,0.003 -0.018,0.012l-0.301,0.49c-0.017,0.03 -0.043,0.045 -0.079,0.045l-0.336,-0c-0.035,-0 -0.062,-0.015 -0.079,-0.045l-0.301,-0.49c-0.007,-0.009 -0.012,-0.013 -0.019,-0.012c-0.005,0.002 -0.008,0.009 -0.008,0.021l-0,1.605c-0,0.021 -0.006,0.037 -0.018,0.049c-0.012,0.012 -0.028,0.018 -0.049,0.018l-0.698,-0c-0.022,-0 -0.037,-0.006 -0.049,-0.018c-0.012,-0.012 -0.018,-0.028 -0.018,-0.049l-0,-2.964c-0,-0.02 0.006,-0.036 0.018,-0.048c0.012,-0.012 0.027,-0.018 0.049,-0.018l0.69,-0c0.035,-0 0.061,0.015 0.079,0.044l0.557,0.899c0.009,0.017 0.018,0.017 0.028,-0l0.556,-0.899c0.019,-0.029 0.045,-0.044 0.08,-0.044Zm-57.35,19.299l-0.468,-0l-0,0.916l-0.474,-0l-0,-2.431l0.942,-0c0.502,-0 0.802,0.345 0.802,0.758c-0,0.413 -0.3,0.757 -0.802,0.757Zm-0.024,-1.092l-0.444,-0l-0,0.666l0.444,-0c0.216,-0 0.352,-0.133 0.352,-0.331c-0,-0.198 -0.136,-0.335 -0.352,-0.335Zm2.688,2.008l-0.475,-0.97l-0.342,-0l-0,0.97l-0.473,-0l-0,-2.431l0.952,-0c0.495,-0 0.789,0.338 0.789,0.744c-0,0.341 -0.209,0.553 -0.444,0.639l0.542,1.048l-0.549,-0Zm-0.369,-2.008l-0.448,-0l-0,0.642l0.448,-0c0.209,-0 0.345,-0.133 0.345,-0.321c-0,-0.187 -0.136,-0.321 -0.345,-0.321Zm1.483,2.007l-0,-2.43l1.601,-0l-0,0.423l-1.126,-0l-0,0.57l0.958,-0l-0,0.424l-0.958,-0l-0,0.59l1.126,-0l-0,0.423l-1.601,-0Zm2.906,0.021c-0.368,-0 -0.648,-0.079 -0.887,-0.321l0.307,-0.307c0.154,0.154 0.362,0.205 0.587,0.205c0.28,-0 0.43,-0.106 0.43,-0.301c-0,-0.085 -0.024,-0.157 -0.075,-0.205c-0.048,-0.044 -0.103,-0.068 -0.215,-0.085l-0.294,-0.041c-0.208,-0.03 -0.361,-0.095 -0.471,-0.202c-0.116,-0.116 -0.174,-0.272 -0.174,-0.477c-0,-0.434 0.321,-0.738 0.846,-0.738c0.336,-0 0.577,0.083 0.786,0.284l-0.301,0.297c-0.153,-0.147 -0.338,-0.168 -0.498,-0.168c-0.253,-0 -0.375,0.14 -0.375,0.307c-0,0.062 0.02,0.127 0.071,0.175c0.048,0.044 0.127,0.082 0.225,0.095l0.287,0.042c0.222,0.03 0.362,0.092 0.465,0.187c0.129,0.123 0.187,0.301 0.187,0.516c-0,0.471 -0.392,0.737 -0.901,0.737Zm1.521,-0.021l-0,-2.43l1.601,-0l-0,0.423l-1.126,-0l-0,0.57l0.958,-0l-0,0.424l-0.958,-0l-0,0.59l1.126,-0l-0,0.423l-1.601,-0Zm3.673,-0l-0.963,-1.491l0,1.491l-0.474,-0l0,-2.43l0.423,-0l0.963,1.489l0,-1.489l0.474,-0l0,2.43l-0.423,-0Zm2.091,-2.007l0,2.008l-0.475,-0l0,-2.008l-0.635,-0l0,-0.423l1.744,-0l0,0.423l-0.634,-0Zm1.192,2.007l0,-2.43l1.601,-0l0,0.423l-1.126,-0l0,0.57l0.958,-0l0,0.424l-0.958,-0l0,0.59l1.126,-0l0,0.423l-1.601,-0Zm3.757,-0.232c-0.162,0.16 -0.39,0.232 -0.642,0.232l-0.878,0l0,-2.431l0.878,0c0.252,0 0.48,0.072 0.642,0.233c0.272,0.272 0.245,0.607 0.245,0.972c0,0.366 0.027,0.72 -0.245,0.994Zm-0.332,-1.625c-0.082,-0.099 -0.192,-0.15 -0.355,-0.15l-0.358,0l0,1.583l0.358,0c0.163,0 0.273,-0.051 0.355,-0.149c0.089,-0.11 0.103,-0.284 0.103,-0.653c0,-0.368 -0.014,-0.522 -0.103,-0.631Zm3.215,1.857l-1.018,0l0,-2.431l0.976,0c0.475,0 0.753,0.266 0.753,0.683c-0,0.27 -0.178,0.444 -0.302,0.502c0.147,0.068 0.336,0.222 0.336,0.546c-0,0.454 -0.312,0.7 -0.745,0.7Zm-0.079,-2.007l-0.464,0l-0,0.56l0.464,0c0.202,0 0.315,-0.113 0.315,-0.281c-0,-0.167 -0.113,-0.279 -0.315,-0.279Zm0.031,0.986l-0.495,0l-0,0.597l0.495,0c0.216,0 0.318,-0.136 0.318,-0.3c-0,-0.163 -0.102,-0.297 -0.318,-0.297Zm2.377,0.024l0,0.997l-0.471,0l0,-0.997l-0.731,-1.434l0.516,0l0.454,0.98l0.447,-0.98l0.516,0l-0.731,1.434Zm13.218,-3.182l0.578,-3.295c0.111,0.015 0.222,0.035 0.331,0.058l-0.578,3.295c-0.107,-0.027 -0.218,-0.046 -0.331,-0.058Zm0.236,7.763l-0.472,-2.693l-0.47,2.691c-0.327,-0.028 -0.647,-0.085 -0.955,-0.168l0.504,-2.88l-1.445,2.531c-0.271,-0.13 -0.529,-0.282 -0.774,-0.453l1.538,-2.694l-2.358,1.993c-0.189,-0.198 -0.365,-0.409 -0.524,-0.633l2.52,-2.133l-3.088,1.133c-0.099,-0.229 -0.184,-0.465 -0.253,-0.707l3.107,-1.14c0.181,1.057 1.101,1.862 2.21,1.862c1.238,-0 2.242,-1.003 2.242,-2.241c0,-0.262 -0.046,-0.513 -0.128,-0.746l3.368,-0c0.03,0.24 0.048,0.482 0.048,0.73c0,0.214 -0.013,0.424 -0.036,0.632l-1.806,-0l1.7,0.622c-0.094,0.412 -0.233,0.807 -0.412,1.178l-1.936,-0.709l1.582,1.334c-0.218,0.334 -0.472,0.642 -0.753,0.921l-1.77,-1.494l1.157,2.016c-0.302,0.223 -0.628,0.414 -0.974,0.572l-1.261,-2.199l0.438,2.498c-0.321,0.089 -0.655,0.148 -0.997,0.177l-0.002,-0Zm-1.981,-7.179c-0.128,0.119 -0.243,0.253 -0.341,0.398l-2.537,-2.144c0.107,-0.139 0.218,-0.272 0.336,-0.401l2.542,2.147Zm4.433,-3.104l-1.659,2.892c-0.087,-0.059 -0.179,-0.111 -0.274,-0.158l1.662,-2.894c0.092,0.051 0.182,0.105 0.271,0.16Zm1.255,1.076c0.06,0.068 0.118,0.139 0.174,0.211l-2.534,2.139c-0.053,-0.074 -0.112,-0.143 -0.175,-0.21l2.535,-2.14Zm-6.351,3.17l-3.107,-1.137c0.058,-0.194 0.126,-0.382 0.205,-0.566l3.113,1.142c-0.094,0.174 -0.166,0.363 -0.211,0.561Zm-0.058,0.505c0,0.105 0.008,0.208 0.022,0.31l-3.302,-0c-0.006,-0.108 -0.009,-0.217 -0.009,-0.326c0,-0.118 0.004,-0.234 0.011,-0.35l3.308,-0c-0.019,0.12 -0.03,0.241 -0.03,0.366Zm0.943,-1.826l-1.659,-2.895c0.125,-0.08 0.254,-0.155 0.386,-0.226l1.661,2.898c-0.138,0.062 -0.268,0.136 -0.388,0.223Zm0.149,-3.638c0.12,-0.026 0.242,-0.047 0.365,-0.065l0.579,3.297c-0.126,0.012 -0.249,0.033 -0.368,0.065l-0.576,-3.297Zm9.249,8.324l-0,-5.722l2.085,0c0.703,0 1.251,0.172 1.645,0.517c0.394,0.343 0.591,0.821 0.591,1.433c-0,0.327 -0.079,0.621 -0.237,0.885c-0.158,0.264 -0.36,0.481 -0.606,0.651l1.401,2.236l-1.665,0l-1,-1.838l-0.769,0l-0,1.838l-1.445,0Zm1.882,-4.615l-0.437,0l-0,1.672l0.422,0c0.658,0 0.986,-0.282 0.986,-0.843c-0,-0.553 -0.324,-0.829 -0.971,-0.829Zm4.336,4.615l0,-4.494l-1.754,-0l0,-1.227l5.036,-0l0,1.227l-1.754,-0l0,4.494l-1.528,-0Zm3.313,-0l1.986,-2.98l-1.851,-2.741l1.784,-0l1.009,1.762l1,-1.762l1.732,-0l-1.873,2.808l1.978,2.913l-1.79,-0l-1.153,-1.942l-1.091,1.942l-1.731,-0Z" style="fill:#fff;"/></svg>