<?xml version="1.0" encoding="UTF-8" standalone="no"?><!DOCTYPE svg PUBLIC "-//W3C//DTD SVG 1.1//EN" "http://www.w3.org/Graphics/SVG/1.1/DTD/svg11.dtd"><svg width="100%" height="100%" viewBox="0 0 50 22" version="1.1" xmlns="http://www.w3.org/2000/svg" xmlns:xlink="http://www.w3.org/1999/xlink" xml:space="preserve" xmlns:serif="http://www.serif.com/" style="fill-rule:evenodd;clip-rule:evenodd;stroke-linejoin:round;stroke-miterlimit:2;"><g><path d="M12.101,6.928c0.19,0.234 0.475,0.371 0.777,0.371c0.302,-0 0.588,-0.137 0.778,-0.371c1.334,-1.649 4.024,-4.973 5.122,-6.33c0.307,-0.378 0.767,-0.598 1.253,-0.598c1.177,0 3.424,0 4.725,0c0.266,-0 0.52,0.105 0.708,0.293c0.187,0.187 0.293,0.442 0.293,0.707c-0,3.648 -0,16.219 -0,19.867c-0,0.265 -0.106,0.52 -0.293,0.707c-0.188,0.188 -0.442,0.293 -0.708,0.293c-1.196,0 -3.187,0 -4.384,0c-0.265,0 -0.519,-0.105 -0.707,-0.293c-0.187,-0.187 -0.293,-0.442 -0.293,-0.707c0,-2.14 0,-7.183 0,-9.799c0,-0.247 -0.155,-0.466 -0.387,-0.548c-0.232,-0.083 -0.49,-0.01 -0.645,0.181c-1.304,1.605 -3.517,4.33 -4.685,5.769c-0.19,0.234 -0.476,0.37 -0.777,0.37c-0.301,-0 -0.586,-0.136 -0.776,-0.37c-1.169,-1.439 -3.381,-4.164 -4.685,-5.769c-0.155,-0.191 -0.414,-0.264 -0.646,-0.181c-0.232,0.082 -0.387,0.301 -0.387,0.548c0,2.616 0,7.659 0,9.799c0,0.265 -0.105,0.52 -0.293,0.707c-0.187,0.188 -0.442,0.293 -0.707,0.293c-1.196,0 -3.188,0 -4.384,0c-0.265,0 -0.52,-0.105 -0.707,-0.293c-0.188,-0.187 -0.293,-0.442 -0.293,-0.707c0,-3.648 0,-16.219 0,-19.867c0,-0.265 0.105,-0.52 0.293,-0.707c0.187,-0.188 0.442,-0.293 0.707,-0.293c1.302,0 3.549,0 4.725,0c0.487,0 0.947,0.22 1.253,0.598c1.098,1.357 3.788,4.681 5.123,6.33Z" style="fill:#fff;"/><path d="M39.992,21.866l-0.001,0.001l-0,-0.003l0.001,0.002Z" style="fill:#fff;"/><path d="M39.993,21.864l0,0.003l-0.001,-0.001l0.001,-0.002Z" style="fill:#fff;"/><path d="M40.744,21.007c-0.19,0.217 -0.464,0.341 -0.752,0.341c-0.288,-0 -0.562,-0.124 -0.752,-0.341c-1.508,-1.722 -4.923,-5.62 -6.881,-7.856c-0.259,-0.296 -0.321,-0.715 -0.159,-1.072c0.162,-0.358 0.519,-0.587 0.911,-0.587c1,-0 2.133,-0 2.924,-0c0.265,-0 0.519,-0.106 0.707,-0.293c0.187,-0.188 0.293,-0.442 0.293,-0.707c-0,-2.12 -0,-7.046 -0,-9.166c-0,-0.265 0.105,-0.519 0.292,-0.707c0.188,-0.187 0.442,-0.293 0.708,-0.293c1.09,0 2.824,0 3.915,0c0.265,0 0.519,0.106 0.707,0.293c0.187,0.188 0.293,0.442 0.293,0.707c-0,2.12 -0,7.046 -0,9.166c-0,0.265 0.105,0.519 0.292,0.707c0.188,0.187 0.442,0.293 0.708,0.293c0.79,-0 1.923,-0 2.923,-0c0.393,-0 0.749,0.229 0.911,0.587c0.162,0.357 0.1,0.776 -0.159,1.072c-1.958,2.236 -5.373,6.134 -6.881,7.856Z" style="fill:#fff;"/></g></svg>