<?xml version="1.0" encoding="UTF-8" standalone="no"?><!DOCTYPE svg PUBLIC "-//W3C//DTD SVG 1.1//EN" "http://www.w3.org/Graphics/SVG/1.1/DTD/svg11.dtd"><svg width="100%" height="100%" viewBox="0 0 53 53" version="1.1" xmlns="http://www.w3.org/2000/svg" xmlns:xlink="http://www.w3.org/1999/xlink" xml:space="preserve" xmlns:serif="http://www.serif.com/" style="fill-rule:evenodd;clip-rule:evenodd;stroke-linejoin:round;stroke-miterlimit:2;"><path d="M26.357,0c14.547,0 26.358,11.81 26.358,26.357c-0,14.547 -11.811,26.358 -26.358,26.358c-14.547,-0 -26.357,-11.811 -26.357,-26.358c-0,-14.547 11.81,-26.357 26.357,-26.357Zm4.939,23.125l9.878,0l-0,-9.877l-9.878,-0l0,9.877Zm-9.877,0l-0,4.939l-4.939,0l-0,14.816l4.939,0l-0,-4.939l9.877,0l0,4.939l4.939,0l-0,-14.816l-4.939,0l0,-4.939l-9.877,0Zm-0,0l-0,-9.877l-9.878,-0l0,9.877l9.878,0Z" style="fill:#fff;"/></svg>