<?xml version="1.0" encoding="UTF-8" standalone="no"?><!DOCTYPE svg PUBLIC "-//W3C//DTD SVG 1.1//EN" "http://www.w3.org/Graphics/SVG/1.1/DTD/svg11.dtd"><svg width="100%" height="100%" viewBox="0 0 66 103" version="1.1" xmlns="http://www.w3.org/2000/svg" xmlns:xlink="http://www.w3.org/1999/xlink" xml:space="preserve" xmlns:serif="http://www.serif.com/" style="fill-rule:evenodd;clip-rule:evenodd;stroke-linejoin:round;stroke-miterlimit:2;"><path d="M37.239,72.224l-0.379,3.239l-3.996,-0l3.333,-18.885l4.188,-0l3.569,18.885l-4.017,-0c-0.119,-1.111 -0.306,-2.649 -0.503,-4.215l-2.195,0.976Zm1.73,-4.578c-0.223,-1.699 -0.391,-2.941 -0.391,-2.941c0,-0 -0.196,-0.454 -0.453,-0.04l-0.419,3.57l1.263,-0.589Zm-38.115,29.744l-0.365,0l-0,0.714l-0.37,-0l-0,-1.896l0.735,-0c0.391,-0 0.625,0.269 0.625,0.591c0,0.322 -0.234,0.591 -0.625,0.591Zm-0.019,-0.852l-0.346,-0l-0,0.519l0.346,0c0.168,0 0.274,-0.104 0.274,-0.258c0,-0.155 -0.106,-0.261 -0.274,-0.261Zm2.097,1.566l-0.37,-0.756l-0.267,-0l0,0.756l-0.37,-0l0,-1.896l0.743,-0c0.387,-0 0.616,0.263 0.616,0.58c-0,0.267 -0.163,0.432 -0.347,0.498l0.424,0.818l-0.429,-0Zm-0.288,-1.566l-0.349,-0l0,0.501l0.349,-0c0.163,-0 0.269,-0.104 0.269,-0.251c0,-0.146 -0.106,-0.25 -0.269,-0.25Zm1.157,1.566l0,-1.896l1.249,-0l0,0.33l-0.879,-0l0,0.445l0.749,-0l-0,0.33l-0.749,-0l0,0.461l0.879,-0l0,0.33l-1.249,-0Zm2.268,0.016c-0.288,-0 -0.506,-0.061 -0.693,-0.25l0.24,-0.24c0.12,0.12 0.282,0.16 0.458,0.16c0.219,-0 0.336,-0.083 0.336,-0.235c-0,-0.066 -0.019,-0.122 -0.059,-0.16c-0.037,-0.034 -0.08,-0.053 -0.168,-0.066l-0.229,-0.032c-0.162,-0.024 -0.282,-0.075 -0.367,-0.157c-0.091,-0.091 -0.136,-0.213 -0.136,-0.373c-0,-0.338 0.25,-0.575 0.66,-0.575c0.261,-0 0.45,0.064 0.613,0.221l-0.234,0.232c-0.12,-0.115 -0.264,-0.131 -0.389,-0.131c-0.197,-0 -0.293,0.109 -0.293,0.24c-0,0.048 0.016,0.098 0.056,0.135c0.037,0.035 0.098,0.064 0.176,0.075l0.223,0.032c0.173,0.024 0.283,0.072 0.362,0.146c0.102,0.096 0.147,0.235 0.147,0.403c-0,0.367 -0.306,0.575 -0.703,0.575Zm1.186,-0.016l-0,-1.896l1.249,-0l0,0.33l-0.879,-0l0,0.445l0.749,-0l-0,0.33l-0.749,-0l0,0.461l0.879,-0l0,0.33l-1.249,-0Zm2.867,-0l-0.751,-1.164l-0,1.164l-0.371,-0l0,-1.896l0.331,-0l0.751,1.161l-0,-1.161l0.37,-0l-0,1.896l-0.33,-0Zm1.631,-1.566l-0,1.566l-0.37,-0l-0,-1.566l-0.496,-0l0,-0.33l1.361,-0l0,0.33l-0.495,-0Zm0.93,1.566l0,-1.896l1.249,-0l0,0.33l-0.879,-0l0,0.445l0.749,-0l-0,0.33l-0.749,-0l0,0.461l0.879,-0l0,0.33l-1.249,-0Zm2.931,-0.181c-0.125,0.125 -0.304,0.181 -0.501,0.181l-0.684,-0l-0,-1.896l0.684,-0c0.197,-0 0.376,0.056 0.501,0.181c0.213,0.213 0.192,0.474 0.192,0.759c-0,0.285 0.021,0.562 -0.192,0.775Zm-0.259,-1.268c-0.063,-0.077 -0.149,-0.117 -0.277,-0.117l-0.279,-0l-0,1.236l0.279,-0c0.128,-0 0.214,-0.04 0.277,-0.118c0.07,-0.085 0.08,-0.221 0.08,-0.508c0,-0.288 -0.01,-0.408 -0.08,-0.493Zm2.508,1.449l-0.793,-0l-0,-1.896l0.761,-0c0.371,-0 0.586,0.207 0.586,0.532c0,0.211 -0.138,0.347 -0.234,0.392c0.114,0.053 0.261,0.173 0.261,0.426c-0,0.354 -0.242,0.546 -0.581,0.546Zm-0.037,-0.796l-0.386,-0l-0,0.466l0.386,-0c0.168,-0 0.248,-0.107 0.248,-0.235c-0,-0.127 -0.08,-0.231 -0.248,-0.231Zm-0.024,-0.77l-0.362,-0l-0,0.437l0.362,-0c0.157,-0 0.245,-0.088 0.245,-0.219c-0,-0.13 -0.088,-0.218 -0.245,-0.218Zm1.879,0.788l-0,0.778l-0.368,-0l0,-0.778l-0.57,-1.118l0.402,-0l0.355,0.764l0.348,-0.764l0.403,-0l-0.57,1.118Zm22.805,-0.286l0.564,-1.18l-0.984,-2.262l0.915,-0l0.487,1.277l0.46,-1.277l0.897,-0l-1.493,3.442l-0.846,-0Zm9.738,0.348l0.394,-0l0,3.437l-0.394,0l-0,-3.437Zm7.299,0.111c0.05,0.053 0.075,0.12 0.075,0.2c-0,0.081 -0.025,0.147 -0.075,0.2c-0.049,0.052 -0.114,0.079 -0.195,0.079c-0.08,-0 -0.145,-0.027 -0.195,-0.079c-0.049,-0.053 -0.074,-0.119 -0.074,-0.2c0,-0.08 0.025,-0.147 0.074,-0.2c0.05,-0.052 0.115,-0.079 0.195,-0.079c0.081,0 0.146,0.027 0.195,0.079Zm-10.657,-1.505l0,-1.3c0,-0.285 -0.107,-0.427 -0.32,-0.427c-0.118,-0 -0.207,0.039 -0.267,0.118c-0.061,0.079 -0.091,0.193 -0.091,0.341l0,1.268l-0.836,0l-0,-3.53l0.836,0l0,1.389c0.068,-0.105 0.161,-0.186 0.279,-0.244c0.117,-0.057 0.251,-0.085 0.399,-0.085c0.276,-0 0.484,0.085 0.625,0.255c0.141,0.17 0.211,0.423 0.211,0.757l0,1.458l-0.836,0Zm2.433,2.824c0.107,0.109 0.191,0.237 0.251,0.386c0.061,0.149 0.091,0.31 0.091,0.483c-0,0.173 -0.03,0.334 -0.091,0.483c-0.06,0.149 -0.144,0.277 -0.251,0.386c-0.106,0.108 -0.233,0.193 -0.378,0.255c-0.146,0.062 -0.304,0.093 -0.474,0.093c-0.17,0 -0.328,-0.031 -0.474,-0.093c-0.145,-0.062 -0.271,-0.147 -0.378,-0.255c-0.107,-0.109 -0.191,-0.237 -0.251,-0.386c-0.06,-0.149 -0.091,-0.31 -0.091,-0.483c0,-0.173 0.031,-0.334 0.091,-0.483c0.06,-0.149 0.144,-0.277 0.251,-0.386c0.107,-0.108 0.233,-0.193 0.378,-0.255c0.146,-0.062 0.304,-0.093 0.474,-0.093c0.17,0 0.328,0.031 0.474,0.093c0.145,0.062 0.272,0.147 0.378,0.255Zm-0.118,1.224c0.037,-0.107 0.056,-0.225 0.056,-0.355c-0,-0.13 -0.019,-0.249 -0.056,-0.355c-0.037,-0.107 -0.091,-0.198 -0.16,-0.272c-0.07,-0.074 -0.153,-0.132 -0.249,-0.174c-0.096,-0.042 -0.204,-0.063 -0.325,-0.063c-0.12,0 -0.229,0.021 -0.325,0.063c-0.096,0.042 -0.179,0.1 -0.249,0.174c-0.069,0.074 -0.123,0.165 -0.16,0.272c-0.037,0.106 -0.055,0.225 -0.055,0.355c-0,0.13 0.018,0.248 0.055,0.355c0.037,0.107 0.091,0.198 0.16,0.272c0.07,0.074 0.153,0.132 0.249,0.174c0.096,0.042 0.205,0.063 0.325,0.063c0.121,-0 0.229,-0.021 0.325,-0.063c0.096,-0.042 0.179,-0.1 0.249,-0.174c0.069,-0.074 0.123,-0.165 0.16,-0.272Zm7.952,-1.507l0.395,0l-0,2.29l-0.395,0l0,-2.29Zm-1.226,-4.756c0.141,0.17 0.212,0.423 0.212,0.757l-0,1.458l-0.836,0l-0,-1.3c-0,-0.285 -0.107,-0.427 -0.321,-0.427c-0.118,-0 -0.207,0.039 -0.267,0.118c-0.06,0.079 -0.091,0.193 -0.091,0.341l0,1.268l-0.836,0l0,-2.396l0.818,-0l0.009,0.297c0.062,-0.118 0.153,-0.209 0.272,-0.274c0.119,-0.065 0.258,-0.097 0.416,-0.097c0.275,-0 0.483,0.085 0.624,0.255Zm-5.418,0.943c0,0.114 -0.009,0.21 -0.028,0.288l-1.579,-0c0.084,0.272 0.316,0.408 0.697,0.408c0.093,0 0.197,-0.011 0.313,-0.034c0.116,-0.023 0.224,-0.057 0.323,-0.1l0.265,0.534c-0.121,0.08 -0.267,0.143 -0.439,0.186c-0.172,0.043 -0.351,0.065 -0.536,0.065c-0.224,-0 -0.424,-0.03 -0.602,-0.089c-0.178,-0.058 -0.33,-0.143 -0.455,-0.253c-0.126,-0.109 -0.222,-0.244 -0.288,-0.402c-0.067,-0.157 -0.1,-0.334 -0.1,-0.529c-0,-0.189 0.03,-0.361 0.091,-0.518c0.06,-0.156 0.146,-0.29 0.257,-0.402c0.112,-0.111 0.244,-0.198 0.397,-0.26c0.154,-0.062 0.323,-0.092 0.509,-0.092c0.18,-0 0.342,0.027 0.488,0.083c0.145,0.056 0.269,0.135 0.371,0.239c0.102,0.104 0.181,0.229 0.235,0.376c0.054,0.147 0.081,0.314 0.081,0.5Zm-1.621,-0.191l0.841,0c-0.016,-0.127 -0.059,-0.225 -0.13,-0.295c-0.072,-0.069 -0.165,-0.104 -0.279,-0.104c-0.235,0 -0.379,0.133 -0.432,0.399Zm4.171,-0.645c0.118,0.114 0.21,0.249 0.276,0.404c0.067,0.155 0.1,0.323 0.1,0.506c0,0.183 -0.033,0.352 -0.1,0.506c-0.066,0.155 -0.158,0.29 -0.276,0.405c-0.117,0.114 -0.257,0.203 -0.418,0.267c-0.161,0.063 -0.336,0.095 -0.525,0.095c-0.189,-0 -0.364,-0.032 -0.525,-0.095c-0.161,-0.064 -0.3,-0.153 -0.418,-0.267c-0.117,-0.115 -0.209,-0.25 -0.276,-0.405c-0.067,-0.154 -0.1,-0.323 -0.1,-0.506c0,-0.183 0.033,-0.351 0.1,-0.506c0.067,-0.155 0.159,-0.29 0.276,-0.404c0.118,-0.115 0.257,-0.204 0.418,-0.267c0.161,-0.064 0.336,-0.095 0.525,-0.095c0.189,-0 0.364,0.031 0.525,0.095c0.161,0.063 0.301,0.152 0.418,0.267Zm-0.562,1.324c0.096,-0.106 0.144,-0.244 0.144,-0.414c0,-0.17 -0.048,-0.308 -0.144,-0.413c-0.096,-0.106 -0.223,-0.158 -0.381,-0.158c-0.158,-0 -0.285,0.052 -0.381,0.158c-0.096,0.105 -0.144,0.243 -0.144,0.413c0,0.17 0.048,0.308 0.144,0.414c0.096,0.105 0.223,0.157 0.381,0.157c0.158,0 0.285,-0.052 0.381,-0.157Zm-6.034,3.513c0.142,0.169 0.213,0.416 0.213,0.741l0,1.361l-0.394,0l-0,-1.291c-0,-0.248 -0.043,-0.429 -0.128,-0.544c-0.085,-0.114 -0.221,-0.172 -0.406,-0.172c-0.205,0 -0.364,0.068 -0.476,0.202c-0.114,0.135 -0.17,0.323 -0.17,0.565l-0,1.24l-0.395,0l0,-2.29l0.372,0l0.006,0.407c0.053,-0.127 0.131,-0.23 0.235,-0.309c0.143,-0.109 0.316,-0.163 0.521,-0.163c0.272,0 0.479,0.084 0.622,0.253Zm6.8,0.095c0.106,0.109 0.19,0.237 0.25,0.386c0.061,0.149 0.091,0.31 0.091,0.483c-0,0.173 -0.03,0.334 -0.091,0.483c-0.06,0.149 -0.144,0.277 -0.25,0.386c-0.107,0.108 -0.234,0.193 -0.379,0.255c-0.146,0.062 -0.304,0.093 -0.474,0.093c-0.17,0 -0.328,-0.031 -0.473,-0.093c-0.146,-0.062 -0.272,-0.147 -0.379,-0.255c-0.107,-0.109 -0.19,-0.237 -0.251,-0.386c-0.06,-0.149 -0.091,-0.31 -0.091,-0.483c0,-0.173 0.031,-0.334 0.091,-0.483c0.061,-0.149 0.144,-0.277 0.251,-0.386c0.107,-0.108 0.233,-0.193 0.379,-0.255c0.145,-0.062 0.303,-0.093 0.473,-0.093c0.17,0 0.328,0.031 0.474,0.093c0.145,0.062 0.272,0.147 0.379,0.255Zm-0.119,1.224c0.037,-0.107 0.056,-0.225 0.056,-0.355c-0,-0.13 -0.019,-0.249 -0.056,-0.355c-0.037,-0.107 -0.091,-0.198 -0.16,-0.272c-0.07,-0.074 -0.153,-0.132 -0.249,-0.174c-0.096,-0.042 -0.204,-0.063 -0.325,-0.063c-0.12,0 -0.229,0.021 -0.325,0.063c-0.096,0.042 -0.179,0.1 -0.248,0.174c-0.07,0.074 -0.124,0.165 -0.161,0.272c-0.037,0.106 -0.055,0.225 -0.055,0.355c-0,0.13 0.018,0.248 0.055,0.355c0.037,0.107 0.091,0.198 0.161,0.272c0.069,0.074 0.152,0.132 0.248,0.174c0.096,0.042 0.205,0.063 0.325,0.063c0.121,-0 0.229,-0.021 0.325,-0.063c0.096,-0.042 0.179,-0.1 0.249,-0.174c0.069,-0.074 0.123,-0.165 0.16,-0.272Zm-13.279,-6.444l-0,2.396l-0.785,0l-0.009,-0.274c-0.072,0.112 -0.168,0.198 -0.291,0.258c-0.122,0.06 -0.261,0.091 -0.415,0.091c-0.161,-0 -0.309,-0.031 -0.442,-0.093c-0.133,-0.062 -0.247,-0.149 -0.343,-0.26c-0.096,-0.112 -0.171,-0.245 -0.226,-0.4c-0.054,-0.155 -0.081,-0.325 -0.081,-0.511c-0,-0.182 0.028,-0.352 0.084,-0.508c0.055,-0.157 0.134,-0.292 0.234,-0.407c0.101,-0.114 0.219,-0.204 0.356,-0.269c0.136,-0.065 0.283,-0.097 0.441,-0.097c0.145,-0 0.278,0.03 0.397,0.092c0.119,0.062 0.214,0.149 0.286,0.26l0.009,-0.278l0.785,-0Zm-0.925,1.581c0.09,-0.097 0.135,-0.225 0.135,-0.383c0,-0.158 -0.045,-0.286 -0.135,-0.383c-0.089,-0.098 -0.205,-0.146 -0.348,-0.146c-0.142,-0 -0.259,0.048 -0.351,0.146c-0.091,0.097 -0.136,0.225 -0.136,0.383c-0,0.158 0.045,0.286 0.136,0.383c0.092,0.098 0.209,0.146 0.351,0.146c0.143,0 0.259,-0.048 0.348,-0.146Zm23.563,5.033c0,0.214 -0.084,0.382 -0.253,0.506c-0.169,0.124 -0.396,0.186 -0.68,0.186c-0.149,0 -0.296,-0.021 -0.442,-0.063c-0.145,-0.042 -0.261,-0.095 -0.348,-0.16l0.163,-0.283c0.201,0.117 0.41,0.176 0.627,0.176c0.17,0 0.302,-0.029 0.394,-0.088c0.093,-0.059 0.14,-0.143 0.14,-0.251c-0,-0.049 -0.007,-0.093 -0.021,-0.13c-0.014,-0.037 -0.041,-0.071 -0.081,-0.1c-0.041,-0.029 -0.096,-0.058 -0.168,-0.086c-0.071,-0.028 -0.164,-0.059 -0.278,-0.093c-0.251,-0.074 -0.431,-0.165 -0.539,-0.274c-0.108,-0.108 -0.163,-0.25 -0.163,-0.427c0,-0.198 0.077,-0.357 0.23,-0.476c0.154,-0.119 0.36,-0.179 0.62,-0.179c0.118,0 0.243,0.018 0.377,0.053c0.133,0.036 0.244,0.082 0.334,0.138l-0.153,0.283c-0.192,-0.096 -0.378,-0.144 -0.558,-0.144c-0.312,-0 -0.469,0.094 -0.469,0.283c0,0.096 0.036,0.173 0.107,0.23c0.071,0.057 0.195,0.112 0.372,0.165c0.148,0.043 0.273,0.088 0.374,0.135c0.1,0.046 0.181,0.098 0.243,0.155c0.062,0.058 0.106,0.123 0.133,0.195c0.026,0.073 0.039,0.156 0.039,0.249Zm-25.516,-2.462l-1.207,0l-0,3.075l-0.418,0l-0,-3.075l-1.208,0l0,-0.357l2.833,-0l0,0.357Zm-1.368,-2.898l-0.208,0.004l-0.256,0l0,1.138l-0.892,0l0,-3.53l1.273,0c0.217,0 0.41,0.028 0.58,0.082c0.171,0.054 0.315,0.132 0.433,0.234c0.117,0.102 0.208,0.228 0.271,0.376c0.064,0.149 0.095,0.316 0.095,0.502c0,0.195 -0.046,0.375 -0.139,0.541c-0.093,0.166 -0.224,0.298 -0.395,0.397l0.878,1.398l-1.022,0l-0.618,-1.142Zm-0.464,-1.682l0,0.981l0.256,-0c0.408,-0 0.613,-0.166 0.613,-0.497c-0,-0.323 -0.202,-0.484 -0.604,-0.484l-0.265,0Zm3.462,5.616c0.092,0.099 0.162,0.219 0.212,0.36c0.049,0.141 0.074,0.296 0.074,0.467c0,0.065 -0.001,0.11 -0.002,0.134c-0.002,0.025 -0.004,0.053 -0.007,0.084l-1.767,-0c0.022,0.221 0.096,0.391 0.225,0.509c0.155,0.14 0.379,0.211 0.673,0.211c0.226,-0 0.459,-0.048 0.697,-0.144l0.149,0.288c-0.106,0.065 -0.235,0.116 -0.388,0.153c-0.154,0.037 -0.312,0.056 -0.476,0.056c-0.403,0 -0.716,-0.105 -0.939,-0.314c-0.223,-0.209 -0.334,-0.501 -0.334,-0.875c0,-0.183 0.028,-0.351 0.084,-0.504c0.055,-0.153 0.134,-0.285 0.234,-0.395c0.101,-0.11 0.221,-0.195 0.36,-0.255c0.14,-0.061 0.293,-0.091 0.46,-0.091c0.152,0 0.291,0.028 0.418,0.084c0.127,0.055 0.236,0.133 0.327,0.232Zm-0.768,0.023c-0.226,0 -0.404,0.078 -0.534,0.235c-0.102,0.122 -0.163,0.281 -0.185,0.476l1.393,-0c-0.004,-0.075 -0.013,-0.15 -0.031,-0.223c-0.023,-0.093 -0.061,-0.175 -0.114,-0.246c-0.052,-0.072 -0.122,-0.13 -0.209,-0.174c-0.086,-0.045 -0.193,-0.068 -0.32,-0.068Zm22.167,-0.03c0.09,0.098 0.16,0.215 0.209,0.353c0.05,0.138 0.075,0.292 0.075,0.462c-0,0.065 -0.001,0.11 -0.002,0.135c-0.002,0.025 -0.005,0.052 -0.008,0.083l-1.753,0c0.046,0.492 0.338,0.739 0.876,0.739c0.244,-0 0.49,-0.057 0.738,-0.172l0.139,0.297c-0.117,0.071 -0.254,0.127 -0.408,0.168c-0.155,0.04 -0.318,0.06 -0.488,0.06c-0.396,0 -0.704,-0.105 -0.922,-0.316c-0.218,-0.211 -0.327,-0.508 -0.327,-0.892c-0,-0.176 0.027,-0.34 0.083,-0.49c0.056,-0.15 0.133,-0.28 0.232,-0.39c0.1,-0.11 0.217,-0.195 0.353,-0.255c0.137,-0.061 0.285,-0.091 0.446,-0.091c0.158,0 0.301,0.027 0.43,0.081c0.128,0.055 0.238,0.131 0.327,0.228Zm-0.78,0.03c-0.217,0 -0.389,0.08 -0.518,0.239c-0.097,0.121 -0.156,0.272 -0.178,0.453l1.381,0c0,-0.003 0,-0.006 0,-0.009c-0.001,-0.034 -0.005,-0.064 -0.011,-0.088c-0.053,-0.397 -0.278,-0.595 -0.674,-0.595Zm-17.971,1.626l0.144,0.292c-0.099,0.056 -0.213,0.1 -0.341,0.131c-0.129,0.03 -0.258,0.046 -0.388,0.046c-0.192,0 -0.366,-0.028 -0.523,-0.084c-0.156,-0.055 -0.289,-0.136 -0.399,-0.241c-0.11,-0.106 -0.194,-0.232 -0.253,-0.381c-0.059,-0.149 -0.088,-0.314 -0.088,-0.497c-0,-0.183 0.03,-0.349 0.09,-0.499c0.06,-0.151 0.145,-0.28 0.253,-0.388c0.109,-0.109 0.239,-0.193 0.393,-0.253c0.153,-0.061 0.321,-0.091 0.504,-0.091c0.244,0 0.48,0.062 0.706,0.186l-0.154,0.288c-0.08,-0.04 -0.167,-0.071 -0.26,-0.091c-0.093,-0.02 -0.184,-0.03 -0.274,-0.03c-0.263,0 -0.471,0.078 -0.625,0.232c-0.153,0.155 -0.229,0.364 -0.229,0.627c-0,0.273 0.078,0.486 0.234,0.639c0.156,0.153 0.372,0.23 0.648,0.23c0.18,-0 0.367,-0.039 0.562,-0.116Zm2.476,-1.71c0.144,0.171 0.216,0.417 0.216,0.739l-0,1.361l-0.395,0l0,-1.291c0,-0.248 -0.043,-0.429 -0.13,-0.544c-0.087,-0.114 -0.223,-0.172 -0.409,-0.172c-0.204,0 -0.363,0.068 -0.476,0.202c-0.113,0.135 -0.169,0.323 -0.169,0.565l-0,1.24l-0.395,0l-0,-3.437l0.395,-0l-0,1.522c0.055,-0.118 0.134,-0.215 0.236,-0.289c0.14,-0.101 0.307,-0.151 0.502,-0.151c0.272,0 0.481,0.085 0.625,0.255Zm0.992,-2.689c-0.122,0.022 -0.248,0.033 -0.378,0.033c-0.604,-0 -0.906,-0.314 -0.906,-0.943l0,-0.855l-0.404,0l0,-0.673l0.404,-0l0,-0.618l0.836,0l0,0.618l0.78,-0l-0.208,0.673l-0.572,0l0,0.711c0,0.145 0.023,0.247 0.07,0.304c0.046,0.057 0.125,0.086 0.237,0.086c0.127,0 0.251,-0.023 0.371,-0.07l0.084,0.646c-0.087,0.037 -0.191,0.066 -0.314,0.088Zm11.303,2.499l0.385,0l0,2.123c0,0.901 -0.413,1.351 -1.24,1.351c-0.086,0 -0.174,-0.005 -0.262,-0.016c-0.088,-0.011 -0.172,-0.025 -0.251,-0.044c-0.079,-0.019 -0.152,-0.04 -0.218,-0.065c-0.067,-0.025 -0.12,-0.053 -0.161,-0.084l0.103,-0.32c0.189,0.121 0.45,0.181 0.785,0.181c0.291,0 0.505,-0.077 0.643,-0.232c0.138,-0.155 0.206,-0.398 0.206,-0.73l0,-0.269c-0.075,0.13 -0.174,0.236 -0.297,0.316c-0.161,0.105 -0.348,0.158 -0.562,0.158c-0.161,0 -0.308,-0.03 -0.441,-0.088c-0.133,-0.059 -0.248,-0.141 -0.344,-0.246c-0.096,-0.106 -0.17,-0.233 -0.223,-0.381c-0.052,-0.149 -0.078,-0.313 -0.078,-0.493c-0,-0.173 0.028,-0.334 0.085,-0.483c0.058,-0.148 0.137,-0.278 0.24,-0.388c0.102,-0.11 0.222,-0.196 0.359,-0.26c0.138,-0.063 0.288,-0.095 0.449,-0.095c0.201,0 0.379,0.055 0.534,0.165c0.113,0.08 0.205,0.184 0.279,0.309l0.009,-0.409Zm-0.207,1.772c0.07,-0.076 0.125,-0.166 0.165,-0.269c0.04,-0.104 0.06,-0.218 0.06,-0.342c0,-0.13 -0.018,-0.249 -0.055,-0.357c-0.038,-0.109 -0.09,-0.201 -0.158,-0.277c-0.068,-0.076 -0.151,-0.134 -0.249,-0.176c-0.097,-0.042 -0.205,-0.063 -0.323,-0.063c-0.114,0 -0.219,0.022 -0.315,0.065c-0.096,0.043 -0.179,0.104 -0.249,0.181c-0.069,0.078 -0.124,0.17 -0.163,0.277c-0.038,0.106 -0.058,0.223 -0.058,0.35c0,0.263 0.071,0.472 0.212,0.625c0.141,0.153 0.332,0.23 0.573,0.23c0.112,-0 0.215,-0.022 0.312,-0.065c0.096,-0.043 0.178,-0.103 0.248,-0.179Zm-27.815,-5.464l0.45,-2.571c0.087,0.013 0.174,0.028 0.259,0.046l-0.451,2.571c-0.084,-0.021 -0.17,-0.037 -0.258,-0.046Zm-1.362,0.456c-0.1,0.093 -0.19,0.197 -0.266,0.311l-1.979,-1.673c0.083,-0.109 0.17,-0.213 0.262,-0.314l1.983,1.676Zm3.459,-2.422l-1.294,2.256c-0.068,-0.045 -0.14,-0.087 -0.214,-0.123l1.296,-2.257c0.072,0.039 0.143,0.081 0.212,0.124Zm0.979,0.839c0.047,0.054 0.092,0.109 0.136,0.165l-1.977,1.669c-0.042,-0.058 -0.088,-0.112 -0.136,-0.164l1.977,-1.67Zm-4.955,2.474l-2.424,-0.888c0.045,-0.151 0.099,-0.298 0.16,-0.441l2.429,0.891c-0.074,0.136 -0.13,0.283 -0.165,0.438Zm3.453,0.394c-0,-0.204 -0.035,-0.4 -0.1,-0.582l2.628,0c0.024,0.186 0.038,0.376 0.038,0.569c-0,0.167 -0.01,0.332 -0.028,0.493l-1.409,0.001l1.326,0.485c-0.074,0.321 -0.182,0.63 -0.322,0.919l-1.51,-0.553l1.234,1.041c-0.17,0.26 -0.367,0.501 -0.587,0.718l-1.381,-1.166l0.903,1.573c-0.237,0.174 -0.491,0.324 -0.76,0.447l-0.984,-1.716l0.342,1.949c-0.252,0.069 -0.512,0.116 -0.78,0.138l-0.368,-2.101l-0.367,2.1c-0.256,-0.022 -0.505,-0.066 -0.745,-0.131l0.393,-2.248l-1.128,1.975c-0.211,-0.101 -0.412,-0.22 -0.603,-0.353l1.2,-2.102l-1.839,1.555c-0.149,-0.154 -0.286,-0.319 -0.41,-0.494l1.967,-1.665l-2.41,0.884c-0.078,-0.178 -0.144,-0.362 -0.197,-0.551l2.424,-0.89c0.141,0.825 0.859,1.454 1.724,1.454c0.966,-0 1.749,-0.783 1.749,-1.749Zm-3.498,-0c-0,0.082 0.006,0.163 0.017,0.242l-2.576,0c-0.005,-0.084 -0.008,-0.169 -0.008,-0.255c0,-0.091 0.004,-0.182 0.01,-0.272l2.58,-0c-0.015,0.093 -0.023,0.188 -0.023,0.285Zm0.735,-1.425l-1.294,-2.258c0.097,-0.063 0.198,-0.122 0.301,-0.177l1.296,2.262c-0.107,0.047 -0.208,0.106 -0.303,0.173Zm0.116,-2.838c0.094,-0.02 0.19,-0.037 0.286,-0.051l0.451,2.572c-0.098,0.009 -0.194,0.026 -0.287,0.051l-0.45,-2.572Zm25.835,-10.666c-0,0.013 -0.005,0.025 -0.011,0.034c-0.008,0.006 -0.021,0.011 -0.034,0.011l-0.485,-0c-0.015,-0 -0.025,-0.005 -0.034,-0.011c-0.008,-0.009 -0.012,-0.021 -0.012,-0.034l-0,-1.112c-0,-0.008 -0.003,-0.015 -0.007,-0.015c-0.004,0 -0.006,0.002 -0.01,0.009l-0.21,0.339c-0.013,0.021 -0.03,0.031 -0.055,0.031l-0.233,0c-0.023,0 -0.042,-0.01 -0.055,-0.031l-0.208,-0.339c-0.004,-0.007 -0.008,-0.009 -0.012,-0.009c-0.005,0 -0.007,0.007 -0.007,0.015l0,1.112c0,0.013 -0.004,0.025 -0.013,0.034c-0.006,0.006 -0.019,0.011 -0.031,0.011l-0.485,-0c-0.015,-0 -0.026,-0.005 -0.034,-0.011c-0.009,-0.009 -0.013,-0.021 -0.013,-0.034l0,-2.054c0,-0.013 0.004,-0.026 0.013,-0.034c0.008,-0.007 0.019,-0.011 0.034,-0.011l0.478,0c0.024,0 0.043,0.011 0.055,0.03l0.386,0.622c0.006,0.013 0.013,0.013 0.019,0l0.385,-0.622c0.013,-0.019 0.03,-0.03 0.056,-0.03l0.478,0c0.013,0 0.026,0.004 0.034,0.011c0.006,0.008 0.011,0.021 0.011,0.034l-0,2.054Zm-2.177,-0.237c-0.071,0.097 -0.168,0.174 -0.293,0.226c-0.125,0.053 -0.269,0.081 -0.434,0.081c-0.172,-0 -0.322,-0.028 -0.451,-0.085c-0.127,-0.055 -0.227,-0.135 -0.299,-0.239c-0.07,-0.106 -0.106,-0.227 -0.106,-0.362l0,-0.043c0,-0.014 0.004,-0.025 0.013,-0.034c0.008,-0.008 0.019,-0.012 0.034,-0.012l0.474,-0c0.015,-0 0.026,0.004 0.034,0.012c0.009,0.009 0.013,0.02 0.013,0.034l-0,0.017c-0,0.057 0.029,0.108 0.091,0.153c0.059,0.044 0.14,0.065 0.239,0.065c0.076,0 0.129,-0.014 0.164,-0.046c0.031,-0.032 0.048,-0.068 0.048,-0.106c0,-0.047 -0.021,-0.078 -0.061,-0.102c-0.04,-0.023 -0.115,-0.051 -0.225,-0.082l-0.089,-0.026c-0.201,-0.061 -0.37,-0.142 -0.508,-0.243c-0.136,-0.104 -0.206,-0.252 -0.206,-0.445c0,-0.129 0.036,-0.244 0.106,-0.341c0.068,-0.1 0.165,-0.176 0.286,-0.229c0.121,-0.053 0.259,-0.08 0.409,-0.08c0.159,-0 0.303,0.029 0.434,0.089c0.129,0.059 0.231,0.144 0.305,0.252c0.076,0.108 0.112,0.231 0.112,0.37l0,0.028c0,0.015 -0.004,0.025 -0.012,0.034c-0.007,0.008 -0.019,0.01 -0.034,0.01l-0.475,0c-0.014,0 -0.025,-0.002 -0.033,-0.01c-0.009,-0.009 -0.011,-0.019 -0.011,-0.034l-0,-0.004c-0,-0.062 -0.028,-0.117 -0.085,-0.168c-0.055,-0.048 -0.129,-0.074 -0.222,-0.074c-0.066,0 -0.117,0.013 -0.155,0.04c-0.038,0.026 -0.057,0.064 -0.057,0.111c0,0.036 0.015,0.067 0.042,0.093c0.028,0.025 0.07,0.051 0.127,0.074c0.058,0.023 0.145,0.053 0.263,0.089c0.017,0.006 0.089,0.029 0.216,0.068c0.127,0.036 0.235,0.106 0.32,0.203c0.087,0.099 0.129,0.22 0.129,0.36c0,0.138 -0.034,0.256 -0.103,0.356Zm-2.679,0.307l-4.333,-0l0,-6.251l-3.41,-18.896l4.24,-0l1.336,10.923l1.337,-10.923l4.24,-0l-3.41,18.896l-0,6.251Zm-32.02,-2.853l0,8.778l-5.548,2.195l0,-33.267c0,-0 1.062,0.066 7.433,-0c6.372,-0.066 6.277,4.689 6.277,4.689c0,0 0.024,4.226 0,11.251c-0.023,7.026 -5.647,6.354 -5.647,6.354l-2.515,0Zm0.001,-4.824c0,-0 -0.082,0.032 1.169,-0.015c1.25,-0.047 1.345,-1.515 1.345,-1.515c-0,0 -0.024,-8.679 -0,-9.977c0.023,-1.297 -1.487,-1.274 -1.487,-1.274l-0.911,0l-0.116,12.781Zm26.4,7.677l-15.131,-0c-0,-0 -1.829,-0.3 -1.859,-1.804c-0.029,-1.504 0,-23.343 0,-23.343l4.395,-0l0,20.688l12.654,0l-0.059,4.459Zm-11.495,-81.725c7.57,-0 13.716,6.146 13.716,13.716c-0,7.57 -6.146,13.716 -13.716,13.716c-7.571,0 -13.717,-6.146 -13.717,-13.716c0,-7.57 6.146,-13.716 13.717,-13.716Zm-2.768,25.528c0.883,0.205 1.803,0.313 2.747,0.313c6.693,0 12.126,-5.433 12.126,-12.125c-0,-4.295 -2.239,-8.072 -5.612,-10.226l-5.687,7.446l6.991,0.258l-10.565,14.334Zm5.228,-23.683c-0.801,-0.167 -1.63,-0.254 -2.481,-0.254c-6.692,-0 -12.125,5.433 -12.125,12.125c0,4.226 2.167,7.95 5.448,10.12l6.989,-9.195l-7.443,0l9.612,-12.796Zm1.302,0.349l-8.728,11.754l7.197,-0.026l-7.96,10.492c0.506,0.271 1.033,0.507 1.579,0.705l9.778,-12.93l-7.063,0.025l6.918,-9.303c-0.551,-0.282 -1.125,-0.522 -1.721,-0.717Zm-31,45.533l-0,8.778l-5.548,2.194l0,-33.267c0,0 1.062,0.066 7.433,0c6.371,-0.066 6.277,4.689 6.277,4.689c-0,0 0.024,4.226 -0,11.252c-0.024,7.026 -5.647,6.354 -5.647,6.354l-2.515,-0Zm0.001,-4.825c0,0 -0.082,0.033 1.168,-0.014c1.251,-0.048 1.345,-1.515 1.345,-1.515c0,-0 -0.023,-8.679 0,-9.977c0.024,-1.298 -1.486,-1.274 -1.486,-1.274l-0.911,-0l-0.116,12.78Zm30.71,-13.474l1.591,14.176l1.369,-14.136l3.883,0.087l-2.962,25.22l-3.866,-0l-1.485,-13.306l-1.485,13.306l-3.867,-0l-2.961,-25.22l3.883,-0.087l1.369,14.136l1.591,-14.176l2.94,-0Zm15.979,-0l-0,4.054l-3.892,0l-0,6.521l3.222,0l-0,3.995l-3.222,0l-0,6.521l9.537,0l1.391,4.256l-15.284,-0l0,-25.347l8.248,-0Zm1.284,-0c-0,-0 3.144,-0.051 6.624,0.206c3.479,0.258 3.686,3.531 3.686,3.531c-0,0 0.103,2.99 0.025,6.264c-0.077,3.273 -2.062,3.943 -2.062,3.943l3.97,11.403l-4.562,-0l-3.506,-9.264l0,3.712l-4.175,-0l-0,-19.795Zm4.193,3.605l-0.033,7.094c-0,-0 0.115,0.016 1.056,-0c0.94,-0.017 0.905,-0.792 0.905,-0.792c0,-0 0.068,-4.603 0,-5.46c-0.067,-0.858 -0.856,-0.842 -0.856,-0.842l-1.072,0Zm-37.228,-3.868c0,-0 5.404,-0.492 5.566,5.383c0.162,5.874 -0,15.237 -0,15.237c-0,0 0.739,4.562 -4.374,5.113c-5.112,0.55 -6.017,-2.321 -6.253,-4.68c-0.236,-2.36 0,-16.715 0,-16.715c0,0 -0.457,-4.115 5.061,-4.338Zm1.123,4.77c-0.062,-0.505 -0.227,-0.963 -0.986,-1.029c-0.759,-0.066 -0.968,0.756 -0.968,0.756c-0,-0 0.008,16.408 -0,16.557c-0.008,0.148 0.14,0.767 0.99,0.841c0.849,0.074 0.964,-0.84 0.964,-0.84l-0,-16.285Z" style="fill:#fff;"/></svg>