<?xml version="1.0" encoding="UTF-8" standalone="no"?><!DOCTYPE svg PUBLIC "-//W3C//DTD SVG 1.1//EN" "http://www.w3.org/Graphics/SVG/1.1/DTD/svg11.dtd"><svg width="100%" height="100%" viewBox="0 0 16 24" version="1.1" xmlns="http://www.w3.org/2000/svg" xmlns:xlink="http://www.w3.org/1999/xlink" xml:space="preserve" xmlns:serif="http://www.serif.com/" style="fill-rule:evenodd;clip-rule:evenodd;stroke-linejoin:round;stroke-miterlimit:2;"><g><path d="M4.276,15.636l-0,-1.216c-0,-0.81 0.175,-1.505 0.526,-2.086c0.351,-0.58 0.783,-1.093 1.297,-1.539c0.513,-0.445 1.026,-0.871 1.539,-1.276c0.513,-0.405 0.945,-0.824 1.296,-1.256c0.351,-0.432 0.527,-0.918 0.527,-1.458c-0,-1.296 -0.811,-1.944 -2.431,-1.944c-1.053,-0 -2.012,0.148 -2.876,0.445c-0.864,0.297 -1.688,0.649 -2.471,1.054c-0.243,0.081 -0.418,0.121 -0.526,0.121c-0.189,0 -0.324,-0.108 -0.405,-0.324l-0.527,-1.58c-0.27,-0.81 -0.297,-1.485 -0.081,-2.025c0.216,-0.54 0.797,-1.026 1.742,-1.458c1.512,-0.729 3.308,-1.094 5.387,-1.094c1.458,-0 2.782,0.216 3.97,0.648c1.188,0.432 2.127,1.094 2.815,1.985c0.689,0.891 1.033,2.025 1.033,3.403c0,1.188 -0.223,2.227 -0.668,3.119c-0.446,0.891 -1.08,1.714 -1.904,2.47c-0.824,0.757 -1.816,1.553 -2.977,2.39c-0.297,0.216 -0.48,0.405 -0.547,0.567c-0.068,0.163 -0.101,0.379 -0.101,0.649l-0,0.405c-0,0.351 -0.19,0.526 -0.568,0.526l-3.524,0c-0.351,0 -0.526,-0.175 -0.526,-0.526Zm-0.81,4.536c-0,-0.918 0.31,-1.674 0.931,-2.268c0.621,-0.594 1.377,-0.891 2.269,-0.891c0.918,-0 1.66,0.297 2.228,0.891c0.567,0.594 0.85,1.35 0.85,2.268c0,0.919 -0.283,1.668 -0.85,2.249c-0.568,0.58 -1.31,0.87 -2.228,0.87c-0.892,0 -1.648,-0.29 -2.269,-0.87c-0.621,-0.581 -0.931,-1.33 -0.931,-2.249Z" style="fill:#fff;fill-rule:nonzero;"/></g></svg>